<?xml version="1.0" encoding="utf-8" standalone="no"?>
<!DOCTYPE svg PUBLIC "-//W3C//DTD SVG 1.1//EN"
  "http://www.w3.org/Graphics/SVG/1.1/DTD/svg11.dtd">
<svg xmlns:xlink="http://www.w3.org/1999/xlink" width="460.8pt" height="345.6pt" viewBox="0 0 460.8 345.6" xmlns="http://www.w3.org/2000/svg" version="1.1">
 <metadata>
  <rdf:RDF xmlns:dc="http://purl.org/dc/elements/1.1/" xmlns:cc="http://creativecommons.org/ns#" xmlns:rdf="http://www.w3.org/1999/02/22-rdf-syntax-ns#">
   <cc:Work>
    <dc:type rdf:resource="http://purl.org/dc/dcmitype/StillImage"/>
    <dc:date>2023-02-02T09:59:55.679213</dc:date>
    <dc:format>image/svg+xml</dc:format>
    <dc:creator>
     <cc:Agent>
      <dc:title>Matplotlib v3.6.1, https://matplotlib.org/</dc:title>
     </cc:Agent>
    </dc:creator>
   </cc:Work>
  </rdf:RDF>
 </metadata>
 <defs>
  <style type="text/css">*{stroke-linejoin: round; stroke-linecap: butt}</style>
 </defs>
 <g id="figure_1">
  <g id="patch_1">
   <path d="M 0 345.6 
L 460.8 345.6 
L 460.8 0 
L 0 0 
z
" style="fill: #ffffff"/>
  </g>
  <g id="axes_1">
   <g id="patch_2">
    <path d="M 57.6 307.584 
L 414.72 307.584 
L 414.72 41.472 
L 57.6 41.472 
z
" style="fill: #ffffff"/>
   </g>
   <g id="PathCollection_1">
    <defs>
     <path id="mf79ac0f0d0" d="M 0 3 
C 0.795609 3 1.55874 2.683901 2.12132 2.12132 
C 2.683901 1.55874 3 0.795609 3 0 
C 3 -0.795609 2.683901 -1.55874 2.12132 -2.12132 
C 1.55874 -2.683901 0.795609 -3 0 -3 
C -0.795609 -3 -1.55874 -2.683901 -2.12132 -2.12132 
C -2.683901 -1.55874 -3 -0.795609 -3 0 
C -3 0.795609 -2.683901 1.55874 -2.12132 2.12132 
C -1.55874 2.683901 -0.795609 3 0 3 
z
" style="stroke: #1f77b4"/>
    </defs>
    <g clip-path="url(#p1f026db087)">
     <use xlink:href="#mf79ac0f0d0" x="398.487273" y="53.568" style="fill: #1f77b4; stroke: #1f77b4"/>
    </g>
   </g>
   <g id="PathCollection_2">
    <defs>
     <path id="m5b00e95a56" d="M 0 3 
C 0.795609 3 1.55874 2.683901 2.12132 2.12132 
C 2.683901 1.55874 3 0.795609 3 0 
C 3 -0.795609 2.683901 -1.55874 2.12132 -2.12132 
C 1.55874 -2.683901 0.795609 -3 0 -3 
C -0.795609 -3 -1.55874 -2.683901 -2.12132 -2.12132 
C -2.683901 -1.55874 -3 -0.795609 -3 0 
C -3 0.795609 -2.683901 1.55874 -2.12132 2.12132 
C -1.55874 2.683901 -0.795609 3 0 3 
z
" style="stroke: #ff7f0e"/>
    </defs>
    <g clip-path="url(#p1f026db087)">
     <use xlink:href="#m5b00e95a56" x="184.415489" y="129.20341" style="fill: #ff7f0e; stroke: #ff7f0e"/>
    </g>
   </g>
   <g id="PathCollection_3">
    <defs>
     <path id="m91df82a126" d="M 0 3 
C 0.795609 3 1.55874 2.683901 2.12132 2.12132 
C 2.683901 1.55874 3 0.795609 3 0 
C 3 -0.795609 2.683901 -1.55874 2.12132 -2.12132 
C 1.55874 -2.683901 0.795609 -3 0 -3 
C -0.795609 -3 -1.55874 -2.683901 -2.12132 -2.12132 
C -2.683901 -1.55874 -3 -0.795609 -3 0 
C -3 0.795609 -2.683901 1.55874 -2.12132 2.12132 
C -1.55874 2.683901 -0.795609 3 0 3 
z
" style="stroke: #2ca02c"/>
    </defs>
    <g clip-path="url(#p1f026db087)">
     <use xlink:href="#m91df82a126" x="100.484618" y="295.488" style="fill: #2ca02c; stroke: #2ca02c"/>
    </g>
   </g>
   <g id="PathCollection_4">
    <defs>
     <path id="m5aea29cbfa" d="M 0 3 
C 0.795609 3 1.55874 2.683901 2.12132 2.12132 
C 2.683901 1.55874 3 0.795609 3 0 
C 3 -0.795609 2.683901 -1.55874 2.12132 -2.12132 
C 1.55874 -2.683901 0.795609 -3 0 -3 
C -0.795609 -3 -1.55874 -2.683901 -2.12132 -2.12132 
C -2.683901 -1.55874 -3 -0.795609 -3 0 
C -3 0.795609 -2.683901 1.55874 -2.12132 2.12132 
C -1.55874 2.683901 -0.795609 3 0 3 
z
" style="stroke: #d62728"/>
    </defs>
    <g clip-path="url(#p1f026db087)">
     <use xlink:href="#m5aea29cbfa" x="98.386857" y="205.122098" style="fill: #d62728; stroke: #d62728"/>
    </g>
   </g>
   <g id="PathCollection_5">
    <defs>
     <path id="m9b9ecefb1b" d="M 0 3 
C 0.795609 3 1.55874 2.683901 2.12132 2.12132 
C 2.683901 1.55874 3 0.795609 3 0 
C 3 -0.795609 2.683901 -1.55874 2.12132 -2.12132 
C 1.55874 -2.683901 0.795609 -3 0 -3 
C -0.795609 -3 -1.55874 -2.683901 -2.12132 -2.12132 
C -2.683901 -1.55874 -3 -0.795609 -3 0 
C -3 0.795609 -2.683901 1.55874 -2.12132 2.12132 
C -1.55874 2.683901 -0.795609 3 0 3 
z
" style="stroke: #9467bd"/>
    </defs>
    <g clip-path="url(#p1f026db087)">
     <use xlink:href="#m9b9ecefb1b" x="140.374941" y="53.568" style="fill: #9467bd; stroke: #9467bd"/>
    </g>
   </g>
   <g id="PathCollection_6">
    <defs>
     <path id="mc470d48cc7" d="M 0 3 
C 0.795609 3 1.55874 2.683901 2.12132 2.12132 
C 2.683901 1.55874 3 0.795609 3 0 
C 3 -0.795609 2.683901 -1.55874 2.12132 -2.12132 
C 1.55874 -2.683901 0.795609 -3 0 -3 
C -0.795609 -3 -1.55874 -2.683901 -2.12132 -2.12132 
C -2.683901 -1.55874 -3 -0.795609 -3 0 
C -3 0.795609 -2.683901 1.55874 -2.12132 2.12132 
C -1.55874 2.683901 -0.795609 3 0 3 
z
" style="stroke: #8c564b"/>
    </defs>
    <g clip-path="url(#p1f026db087)">
     <use xlink:href="#mc470d48cc7" x="73.832727" y="248.463738" style="fill: #8c564b; stroke: #8c564b"/>
    </g>
   </g>
   <g id="PathCollection_7">
    <defs>
     <path id="mc228bad671" d="M 0 3 
C 0.795609 3 1.55874 2.683901 2.12132 2.12132 
C 2.683901 1.55874 3 0.795609 3 0 
C 3 -0.795609 2.683901 -1.55874 2.12132 -2.12132 
C 1.55874 -2.683901 0.795609 -3 0 -3 
C -0.795609 -3 -1.55874 -2.683901 -2.12132 -2.12132 
C -2.683901 -1.55874 -3 -0.795609 -3 0 
C -3 0.795609 -2.683901 1.55874 -2.12132 2.12132 
C -1.55874 2.683901 -0.795609 3 0 3 
z
" style="stroke: #e377c2"/>
    </defs>
    <g clip-path="url(#p1f026db087)">
     <use xlink:href="#mc228bad671" x="169.613824" y="53.568" style="fill: #e377c2; stroke: #e377c2"/>
    </g>
   </g>
   <g id="PathCollection_8">
    <defs>
     <path id="m228d4623f2" d="M 0 3 
C 0.795609 3 1.55874 2.683901 2.12132 2.12132 
C 2.683901 1.55874 3 0.795609 3 0 
C 3 -0.795609 2.683901 -1.55874 2.12132 -2.12132 
C 1.55874 -2.683901 0.795609 -3 0 -3 
C -0.795609 -3 -1.55874 -2.683901 -2.12132 -2.12132 
C -2.683901 -1.55874 -3 -0.795609 -3 0 
C -3 0.795609 -2.683901 1.55874 -2.12132 2.12132 
C -1.55874 2.683901 -0.795609 3 0 3 
z
" style="stroke: #7f7f7f"/>
    </defs>
    <g clip-path="url(#p1f026db087)">
     <use xlink:href="#m228d4623f2" x="140.864059" y="80.762754" style="fill: #7f7f7f; stroke: #7f7f7f"/>
    </g>
   </g>
   <g id="PathCollection_9">
    <defs>
     <path id="mb465459005" d="M 0 3 
C 0.795609 3 1.55874 2.683901 2.12132 2.12132 
C 2.683901 1.55874 3 0.795609 3 0 
C 3 -0.795609 2.683901 -1.55874 2.12132 -2.12132 
C 1.55874 -2.683901 0.795609 -3 0 -3 
C -0.795609 -3 -1.55874 -2.683901 -2.12132 -2.12132 
C -2.683901 -1.55874 -3 -0.795609 -3 0 
C -3 0.795609 -2.683901 1.55874 -2.12132 2.12132 
C -1.55874 2.683901 -0.795609 3 0 3 
z
" style="stroke: #bcbd22"/>
    </defs>
    <g clip-path="url(#p1f026db087)">
     <use xlink:href="#mb465459005" x="73.832727" y="154.698492" style="fill: #bcbd22; stroke: #bcbd22"/>
    </g>
   </g>
   <g id="PathCollection_10">
    <defs>
     <path id="me362062eb7" d="M 0 3 
C 0.795609 3 1.55874 2.683901 2.12132 2.12132 
C 2.683901 1.55874 3 0.795609 3 0 
C 3 -0.795609 2.683901 -1.55874 2.12132 -2.12132 
C 1.55874 -2.683901 0.795609 -3 0 -3 
C -0.795609 -3 -1.55874 -2.683901 -2.12132 -2.12132 
C -2.683901 -1.55874 -3 -0.795609 -3 0 
C -3 0.795609 -2.683901 1.55874 -2.12132 2.12132 
C -1.55874 2.683901 -0.795609 3 0 3 
z
" style="stroke: #17becf"/>
    </defs>
    <g clip-path="url(#p1f026db087)">
     <use xlink:href="#me362062eb7" x="73.832727" y="82.462426" style="fill: #17becf; stroke: #17becf"/>
    </g>
   </g>
   <g id="PathCollection_11">
    <g clip-path="url(#p1f026db087)">
     <use xlink:href="#mf79ac0f0d0" x="103.82989" y="126.93718" style="fill: #1f77b4; stroke: #1f77b4"/>
    </g>
   </g>
   <g id="PathCollection_12">
    <g clip-path="url(#p1f026db087)">
     <use xlink:href="#m5b00e95a56" x="73.832727" y="153.848656" style="fill: #ff7f0e; stroke: #ff7f0e"/>
    </g>
   </g>
   <g id="PathCollection_13">
    <g clip-path="url(#p1f026db087)">
     <use xlink:href="#m91df82a126" x="73.832727" y="53.568" style="fill: #2ca02c; stroke: #2ca02c"/>
    </g>
   </g>
   <g id="PathCollection_14">
    <g clip-path="url(#p1f026db087)">
     <use xlink:href="#m5aea29cbfa" x="79.647685" y="166.879475" style="fill: #d62728; stroke: #d62728"/>
    </g>
   </g>
   <g id="PathCollection_15">
    <g clip-path="url(#p1f026db087)">
     <use xlink:href="#m9b9ecefb1b" x="73.832727" y="80.479475" style="fill: #9467bd; stroke: #9467bd"/>
    </g>
   </g>
   <g id="PathCollection_16">
    <g clip-path="url(#p1f026db087)">
     <use xlink:href="#mc470d48cc7" x="73.832727" y="53.568" style="fill: #8c564b; stroke: #8c564b"/>
    </g>
   </g>
   <g id="PathCollection_17">
    <g clip-path="url(#p1f026db087)">
     <use xlink:href="#mc228bad671" x="81.419219" y="179.343738" style="fill: #e377c2; stroke: #e377c2"/>
    </g>
   </g>
   <g id="PathCollection_18">
    <g clip-path="url(#p1f026db087)">
     <use xlink:href="#m228d4623f2" x="110.427824" y="74.813902" style="fill: #7f7f7f; stroke: #7f7f7f"/>
    </g>
   </g>
   <g id="PathCollection_19">
    <g clip-path="url(#p1f026db087)">
     <use xlink:href="#mb465459005" x="86.881493" y="281.040787" style="fill: #bcbd22; stroke: #bcbd22"/>
    </g>
   </g>
   <g id="PathCollection_20">
    <g clip-path="url(#p1f026db087)">
     <use xlink:href="#me362062eb7" x="73.832727" y="62.916197" style="fill: #17becf; stroke: #17becf"/>
    </g>
   </g>
   <g id="PathCollection_21">
    <g clip-path="url(#p1f026db087)">
     <use xlink:href="#mf79ac0f0d0" x="73.832727" y="53.568" style="fill: #1f77b4; stroke: #1f77b4"/>
    </g>
   </g>
   <g id="PathCollection_22">
    <g clip-path="url(#p1f026db087)">
     <use xlink:href="#m5b00e95a56" x="106.927423" y="88.128" style="fill: #ff7f0e; stroke: #ff7f0e"/>
    </g>
   </g>
   <g id="PathCollection_23">
    <g clip-path="url(#p1f026db087)">
     <use xlink:href="#m91df82a126" x="146.116353" y="76.230295" style="fill: #2ca02c; stroke: #2ca02c"/>
    </g>
   </g>
   <g id="PathCollection_24">
    <g clip-path="url(#p1f026db087)">
     <use xlink:href="#m5aea29cbfa" x="103.852894" y="71.697836" style="fill: #d62728; stroke: #d62728"/>
    </g>
   </g>
   <g id="PathCollection_25">
    <g clip-path="url(#p1f026db087)">
     <use xlink:href="#m9b9ecefb1b" x="99.723136" y="258.945049" style="fill: #9467bd; stroke: #9467bd"/>
    </g>
   </g>
   <g id="PathCollection_26">
    <g clip-path="url(#p1f026db087)">
     <use xlink:href="#mc470d48cc7" x="146.325871" y="287.839475" style="fill: #8c564b; stroke: #8c564b"/>
    </g>
   </g>
   <g id="PathCollection_27">
    <g clip-path="url(#p1f026db087)">
     <use xlink:href="#mc228bad671" x="73.832727" y="117.588984" style="fill: #e377c2; stroke: #e377c2"/>
    </g>
   </g>
   <g id="PathCollection_28">
    <g clip-path="url(#p1f026db087)">
     <use xlink:href="#m228d4623f2" x="80.803222" y="92.37718" style="fill: #7f7f7f; stroke: #7f7f7f"/>
    </g>
   </g>
   <g id="PathCollection_29">
    <g clip-path="url(#p1f026db087)">
     <use xlink:href="#mb465459005" x="73.832727" y="155.831607" style="fill: #bcbd22; stroke: #bcbd22"/>
    </g>
   </g>
   <g id="PathCollection_30">
    <g clip-path="url(#p1f026db087)">
     <use xlink:href="#me362062eb7" x="108.171585" y="205.122098" style="fill: #17becf; stroke: #17becf"/>
    </g>
   </g>
   <g id="PathCollection_31">
    <g clip-path="url(#p1f026db087)">
     <use xlink:href="#mf79ac0f0d0" x="145.641973" y="247.89718" style="fill: #1f77b4; stroke: #1f77b4"/>
    </g>
   </g>
   <g id="PathCollection_32">
    <g clip-path="url(#p1f026db087)">
     <use xlink:href="#m5b00e95a56" x="87.597248" y="292.938492" style="fill: #ff7f0e; stroke: #ff7f0e"/>
    </g>
   </g>
   <g id="PathCollection_33">
    <g clip-path="url(#p1f026db087)">
     <use xlink:href="#m91df82a126" x="88.935465" y="285.856525" style="fill: #2ca02c; stroke: #2ca02c"/>
    </g>
   </g>
   <g id="matplotlib.axis_1">
    <g id="xtick_1">
     <g id="line2d_1">
      <defs>
       <path id="m93d237da2f" d="M 0 0 
L 0 3.5 
" style="stroke: #000000; stroke-width: 0.8"/>
      </defs>
      <g>
       <use xlink:href="#m93d237da2f" x="73.832727" y="307.584" style="stroke: #000000; stroke-width: 0.8"/>
      </g>
     </g>
     <g id="text_1">
      <!-- 0 -->
      <g transform="translate(71.332727 321.576187) scale(0.1 -0.1)">
       <defs>
        <path id="FangSong-30" d="M 1575 4125 
Q 1225 4125 987 3587 
Q 750 3050 750 2150 
Q 750 1200 987 675 
Q 1225 150 1575 150 
Q 1950 150 2162 675 
Q 2375 1200 2375 2150 
Q 2375 3050 2175 3587 
Q 1975 4125 1575 4125 
z
M 1575 -50 
Q 1025 -50 650 525 
Q 275 1100 275 2150 
Q 275 3125 637 3725 
Q 1000 4325 1575 4325 
Q 2125 4325 2487 3750 
Q 2850 3175 2850 2150 
Q 2850 1125 2487 537 
Q 2125 -50 1575 -50 
z
" transform="scale(0.015625)"/>
       </defs>
       <use xlink:href="#FangSong-30"/>
      </g>
     </g>
    </g>
    <g id="xtick_2">
     <g id="line2d_2">
      <g>
       <use xlink:href="#m93d237da2f" x="128.202585" y="307.584" style="stroke: #000000; stroke-width: 0.8"/>
      </g>
     </g>
     <g id="text_2">
      <!-- 10 -->
      <g transform="translate(123.202585 321.576187) scale(0.1 -0.1)">
       <defs>
        <path id="FangSong-31" d="M 1800 4350 
L 1800 550 
Q 1800 350 1925 250 
Q 2050 150 2275 150 
L 2525 150 
L 2525 0 
L 700 0 
L 700 150 
L 925 150 
Q 1175 150 1287 250 
Q 1400 350 1400 550 
L 1400 3575 
Q 1400 3675 1337 3737 
Q 1275 3800 1150 3800 
L 700 3800 
L 700 3950 
L 925 3950 
Q 1225 3950 1412 4050 
Q 1600 4150 1700 4350 
L 1800 4350 
z
" transform="scale(0.015625)"/>
       </defs>
       <use xlink:href="#FangSong-31"/>
       <use xlink:href="#FangSong-30" x="50"/>
      </g>
     </g>
    </g>
    <g id="xtick_3">
     <g id="line2d_3">
      <g>
       <use xlink:href="#m93d237da2f" x="182.572442" y="307.584" style="stroke: #000000; stroke-width: 0.8"/>
      </g>
     </g>
     <g id="text_3">
      <!-- 20 -->
      <g transform="translate(177.572442 321.576187) scale(0.1 -0.1)">
       <defs>
        <path id="FangSong-32" d="M 2300 3225 
Q 2300 3675 2100 3912 
Q 1900 4150 1500 4150 
Q 1200 4150 987 3987 
Q 775 3825 775 3575 
Q 775 3425 862 3325 
Q 950 3225 950 3125 
Q 950 3000 887 2937 
Q 825 2875 700 2875 
Q 550 2875 462 2962 
Q 375 3050 375 3250 
Q 375 3775 750 4050 
Q 1125 4325 1550 4325 
Q 2150 4325 2437 4025 
Q 2725 3725 2725 3275 
Q 2725 2975 2587 2675 
Q 2450 2375 2150 2100 
Q 1425 1400 1037 962 
Q 650 525 575 375 
L 2050 375 
Q 2275 375 2425 550 
Q 2575 725 2625 1075 
L 2775 1075 
L 2625 0 
L 300 0 
L 300 325 
Q 425 550 712 900 
Q 1000 1250 1475 1725 
Q 1900 2150 2100 2525 
Q 2300 2900 2300 3225 
z
" transform="scale(0.015625)"/>
       </defs>
       <use xlink:href="#FangSong-32"/>
       <use xlink:href="#FangSong-30" x="50"/>
      </g>
     </g>
    </g>
    <g id="xtick_4">
     <g id="line2d_4">
      <g>
       <use xlink:href="#m93d237da2f" x="236.9423" y="307.584" style="stroke: #000000; stroke-width: 0.8"/>
      </g>
     </g>
     <g id="text_4">
      <!-- 30 -->
      <g transform="translate(231.9423 321.576187) scale(0.1 -0.1)">
       <defs>
        <path id="FangSong-33" d="M 2775 1150 
Q 2775 675 2425 312 
Q 2075 -50 1450 -50 
Q 1000 -50 675 200 
Q 350 450 350 775 
Q 350 925 450 1037 
Q 550 1150 650 1150 
Q 800 1150 862 1037 
Q 925 925 925 850 
Q 925 725 875 637 
Q 825 550 825 475 
Q 825 325 1012 225 
Q 1200 125 1425 125 
Q 1875 125 2100 387 
Q 2325 650 2325 1200 
Q 2325 1650 2087 1925 
Q 1850 2200 1200 2200 
L 1200 2375 
Q 1700 2375 1937 2612 
Q 2175 2850 2175 3275 
Q 2175 3625 1987 3887 
Q 1800 4150 1400 4150 
Q 1225 4150 1025 4062 
Q 825 3975 825 3775 
Q 825 3575 875 3525 
Q 925 3475 925 3400 
Q 925 3275 875 3200 
Q 825 3125 700 3125 
Q 600 3125 512 3200 
Q 425 3275 425 3475 
Q 425 3850 750 4087 
Q 1075 4325 1500 4325 
Q 2000 4325 2300 4012 
Q 2600 3700 2600 3350 
Q 2600 2975 2412 2712 
Q 2225 2450 1825 2325 
Q 2375 2125 2575 1800 
Q 2775 1475 2775 1150 
z
" transform="scale(0.015625)"/>
       </defs>
       <use xlink:href="#FangSong-33"/>
       <use xlink:href="#FangSong-30" x="50"/>
      </g>
     </g>
    </g>
    <g id="xtick_5">
     <g id="line2d_5">
      <g>
       <use xlink:href="#m93d237da2f" x="291.312158" y="307.584" style="stroke: #000000; stroke-width: 0.8"/>
      </g>
     </g>
     <g id="text_5">
      <!-- 40 -->
      <g transform="translate(286.312158 321.576187) scale(0.1 -0.1)">
       <defs>
        <path id="FangSong-34" d="M 2275 475 
Q 2275 300 2375 225 
Q 2475 150 2650 150 
L 2875 150 
L 2875 0 
L 1225 0 
L 1225 150 
L 1500 150 
Q 1700 150 1787 225 
Q 1875 300 1875 475 
L 1875 1300 
L 200 1300 
L 200 1425 
L 2025 4325 
L 2275 4325 
L 2275 1450 
L 2950 1450 
L 2950 1300 
L 2275 1300 
L 2275 475 
z
M 1850 3700 
L 425 1450 
L 1875 1450 
L 1875 3700 
L 1850 3700 
z
" transform="scale(0.015625)"/>
       </defs>
       <use xlink:href="#FangSong-34"/>
       <use xlink:href="#FangSong-30" x="50"/>
      </g>
     </g>
    </g>
    <g id="xtick_6">
     <g id="line2d_6">
      <g>
       <use xlink:href="#m93d237da2f" x="345.682015" y="307.584" style="stroke: #000000; stroke-width: 0.8"/>
      </g>
     </g>
     <g id="text_6">
      <!-- 50 -->
      <g transform="translate(340.682015 321.576187) scale(0.1 -0.1)">
       <defs>
        <path id="FangSong-35" d="M 1700 2750 
Q 2175 2750 2475 2387 
Q 2775 2025 2775 1425 
Q 2775 750 2462 350 
Q 2150 -50 1500 -50 
Q 1050 -50 700 212 
Q 350 475 350 850 
Q 350 1000 437 1112 
Q 525 1225 675 1225 
Q 825 1225 875 1125 
Q 925 1025 925 950 
Q 925 800 850 712 
Q 775 625 775 525 
Q 775 325 1012 225 
Q 1250 125 1525 125 
Q 1925 125 2137 450 
Q 2350 775 2350 1375 
Q 2350 1875 2162 2187 
Q 1975 2500 1600 2500 
Q 1325 2500 1125 2400 
Q 925 2300 750 1975 
L 525 2000 
L 650 4275 
L 2700 4275 
L 2625 3900 
L 825 3900 
L 725 2250 
Q 975 2600 1212 2675 
Q 1450 2750 1700 2750 
z
" transform="scale(0.015625)"/>
       </defs>
       <use xlink:href="#FangSong-35"/>
       <use xlink:href="#FangSong-30" x="50"/>
      </g>
     </g>
    </g>
    <g id="xtick_7">
     <g id="line2d_7">
      <g>
       <use xlink:href="#m93d237da2f" x="400.051873" y="307.584" style="stroke: #000000; stroke-width: 0.8"/>
      </g>
     </g>
     <g id="text_7">
      <!-- 60 -->
      <g transform="translate(395.051873 321.576187) scale(0.1 -0.1)">
       <defs>
        <path id="FangSong-36" d="M 750 1700 
Q 750 950 1012 537 
Q 1275 125 1650 125 
Q 2025 125 2225 400 
Q 2425 675 2425 1425 
Q 2425 1925 2212 2200 
Q 2000 2475 1700 2475 
Q 1425 2475 1187 2312 
Q 950 2150 750 1700 
z
M 1725 2725 
Q 2325 2725 2587 2325 
Q 2850 1925 2850 1425 
Q 2850 675 2487 312 
Q 2125 -50 1650 -50 
Q 975 -50 625 462 
Q 275 975 275 1950 
Q 275 3100 700 3712 
Q 1125 4325 1850 4325 
Q 2200 4325 2412 4125 
Q 2625 3925 2625 3775 
Q 2625 3625 2562 3550 
Q 2500 3475 2350 3475 
Q 2225 3475 2162 3537 
Q 2100 3600 2100 3725 
Q 2100 3775 2112 3825 
Q 2125 3875 2125 3925 
Q 2125 4025 2050 4087 
Q 1975 4150 1775 4150 
Q 1350 4150 1050 3762 
Q 750 3375 750 2075 
Q 900 2400 1162 2562 
Q 1425 2725 1725 2725 
z
" transform="scale(0.015625)"/>
       </defs>
       <use xlink:href="#FangSong-36"/>
       <use xlink:href="#FangSong-30" x="50"/>
      </g>
     </g>
    </g>
    <g id="text_8">
     <!-- 熬夜提交在所有提交中占有的百分比 -->
     <g transform="translate(156.16 335.107437) scale(0.1 -0.1)">
      <defs>
       <path id="FangSong-71ac" d="M 3450 2925 
Q 3175 2925 2200 2750 
L 2050 2300 
L 2800 2400 
L 2950 2625 
L 3225 2375 
L 3050 2200 
Q 2975 1925 2825 1475 
Q 2675 1025 2450 775 
Q 2300 1050 1975 1375 
L 2025 1450 
L 2450 1200 
Q 2650 1575 2800 2175 
L 1975 2075 
Q 1500 1250 650 725 
L 600 825 
Q 1125 1200 1475 1687 
Q 1825 2175 1950 2725 
Q 1050 2575 975 2525 
L 675 2775 
Q 1075 2775 2250 2950 
L 2250 3375 
Q 1825 3325 1650 3275 
L 1400 3500 
Q 1725 3525 2250 3600 
L 2250 4000 
Q 1450 3900 1300 3850 
L 1025 4075 
Q 1275 4050 2250 4200 
L 2250 4600 
Q 2250 4950 2100 5150 
L 2150 5200 
L 2575 4875 
Q 2475 4750 2475 4500 
L 2475 4225 
Q 3075 4350 3225 4425 
L 3475 4175 
Q 3225 4175 2475 4025 
L 2475 3625 
Q 2925 3700 3000 3725 
L 3250 3525 
Q 3075 3525 2475 3425 
L 2475 3000 
Q 3025 3100 3250 3175 
L 3450 2925 
z
M 3587 3062 
Q 3725 3425 3900 4075 
Q 4075 4725 4087 4912 
Q 4100 5100 3975 5175 
L 4050 5225 
L 4450 4800 
Q 4325 4775 4237 4487 
Q 4150 4200 3975 3650 
Q 5325 3825 5375 3875 
L 5650 3600 
Q 5375 3600 4825 3525 
L 5050 3225 
Q 5000 3200 4862 2875 
Q 4725 2550 4450 2150 
Q 4975 1475 5225 1387 
Q 5475 1300 5900 1300 
L 5900 1175 
Q 5475 1150 4975 1050 
Q 4925 1225 4350 1975 
Q 3725 1250 2900 800 
L 2850 900 
Q 3725 1450 4200 2150 
Q 3975 2475 3675 2900 
Q 3575 2675 3350 2325 
L 3275 2400 
Q 3450 2700 3587 3062 
z
M 3750 3025 
Q 4100 2550 4325 2300 
Q 4600 2800 4712 3112 
Q 4825 3425 4750 3525 
L 3925 3425 
L 3750 3025 
z
M 5325 -100 
Q 5225 -325 5050 -525 
Q 4800 125 4425 750 
L 4525 825 
Q 5025 250 5325 -100 
z
M 1650 800 
Q 1525 -175 1225 -650 
L 1025 -225 
Q 1325 -50 1525 800 
L 1650 800 
z
M 2800 -75 
Q 2675 -325 2500 -475 
Q 2425 50 2250 675 
L 2350 725 
Q 2600 325 2800 -75 
z
M 3775 -400 
Q 3625 175 3375 650 
L 3500 725 
Q 3850 325 4025 25 
Q 3925 -225 3775 -400 
z
" transform="scale(0.015625)"/>
       <path id="FangSong-591c" d="M 3900 2175 
Q 3900 1975 3850 1775 
Q 3700 2000 3300 2400 
L 3350 2475 
Q 3650 2325 3900 2175 
z
M 3350 2900 
Q 3100 2325 2825 1975 
L 3125 1975 
Q 3125 1900 3237 1750 
Q 3350 1600 3725 1225 
Q 4225 1900 4525 2900 
Q 3700 2775 3600 2675 
L 3350 2900 
z
M 3375 2950 
Q 4000 3050 4500 3175 
L 4625 3400 
L 4975 3150 
L 4800 2975 
Q 4475 1850 3900 1050 
Q 4750 150 5000 0 
Q 5250 -150 5975 -150 
L 5975 -250 
L 4825 -400 
Q 4825 -300 4587 12 
Q 4350 325 3775 900 
Q 3100 75 2075 -575 
L 2025 -475 
Q 2950 150 3625 1050 
Q 3425 1225 3162 1537 
Q 2900 1850 2775 1875 
Q 2575 1600 2275 1200 
L 2175 1275 
Q 3100 2575 3400 3925 
L 2375 3825 
L 2575 3475 
Q 2425 3400 2362 3350 
Q 2300 3300 1950 2875 
L 1900 -325 
Q 1900 -700 1800 -550 
L 1525 -75 
Q 1675 0 1675 275 
L 1700 2600 
Q 1250 2100 500 1475 
L 425 1575 
Q 1175 2275 1750 2987 
Q 2325 3700 2250 3825 
Q 1375 3725 1250 3675 
L 900 3975 
Q 1275 3950 3225 4150 
Q 3150 4650 2825 5150 
L 2900 5225 
Q 3225 4875 3575 4525 
Q 3450 4350 3325 4150 
Q 5250 4325 5450 4400 
L 5775 4100 
Q 5325 4100 3500 3950 
L 3800 3700 
Q 3650 3625 3600 3487 
Q 3550 3350 3375 2950 
z
" transform="scale(0.015625)"/>
       <path id="FangSong-63d0" d="M 4975 3150 
L 3225 2925 
Q 3250 2650 3150 2675 
L 2925 3000 
Q 3025 3075 3000 3300 
L 3000 4275 
Q 3000 4725 2900 5050 
L 2975 5100 
L 3175 4700 
L 4575 4875 
L 4725 5125 
L 5000 4850 
L 4825 4675 
L 4750 3375 
L 4975 3150 
z
M 3700 525 
L 3750 2175 
Q 2625 2050 2500 2000 
L 2150 2250 
Q 2550 2250 3837 2400 
Q 5125 2550 5275 2625 
L 5600 2350 
Q 5175 2350 3975 2200 
L 3950 1525 
Q 4825 1625 4950 1675 
L 5200 1425 
Q 4850 1425 3950 1275 
L 3925 425 
Q 4400 150 4625 25 
Q 4850 -100 5050 -162 
Q 5250 -225 5925 -175 
L 5925 -300 
L 4875 -525 
Q 4900 -400 4375 -87 
Q 3850 225 2850 825 
Q 2550 75 1925 -575 
L 1850 -500 
Q 2300 100 2450 425 
Q 2600 750 2725 1162 
Q 2850 1575 2775 1775 
L 2825 1825 
L 3175 1425 
Q 3100 1425 3050 1325 
Q 3000 1225 2925 1000 
L 3700 525 
z
M 625 3425 
Q 975 3400 1625 3525 
L 1650 4325 
Q 1675 5050 1525 5125 
L 1575 5200 
L 2025 4875 
Q 1900 4850 1875 4425 
L 1850 3575 
Q 2500 3650 2525 3700 
L 2750 3400 
Q 2550 3425 1850 3325 
L 1825 2425 
L 2650 2850 
L 2700 2750 
L 1825 2225 
L 1800 400 
Q 1800 -200 1600 -575 
Q 1375 -200 775 400 
L 825 475 
L 1500 25 
Q 1575 250 1575 625 
L 1600 2075 
Q 900 1675 725 1550 
L 475 1800 
Q 750 1875 1600 2325 
L 1625 3275 
Q 975 3200 950 3150 
L 625 3425 
z
M 4600 4650 
L 3225 4475 
L 3225 3925 
Q 4025 4025 4225 4100 
L 4500 3850 
Q 4150 3850 3225 3700 
L 3225 3175 
L 4525 3325 
L 4600 4650 
z
" transform="scale(0.015625)"/>
       <path id="FangSong-4ea4" d="M 3275 1200 
Q 3800 650 4137 362 
Q 4475 75 4700 -62 
Q 4925 -200 5850 -200 
L 5850 -325 
L 4575 -475 
Q 4500 -300 3150 1050 
Q 2100 -125 600 -650 
L 575 -550 
Q 1975 50 2950 1225 
Q 2775 1475 2475 1787 
Q 2175 2100 2000 2075 
L 2000 2200 
L 2400 2250 
Q 2400 2125 2575 1925 
L 3125 1400 
Q 3800 2450 3675 2850 
L 3750 2875 
L 4075 2350 
Q 3975 2375 3812 2062 
Q 3650 1750 3275 1200 
z
M 5600 3875 
Q 5075 3850 3262 3662 
Q 1450 3475 1150 3375 
L 775 3625 
Q 1200 3650 3100 3850 
Q 5000 4050 5175 4125 
L 5600 3875 
z
M 700 1550 
Q 1250 1975 1787 2537 
Q 2325 3100 2325 3425 
L 2400 3450 
L 2650 3000 
Q 2525 2950 2012 2450 
Q 1500 1950 775 1450 
L 700 1550 
z
M 3750 3450 
Q 4725 2875 5150 2650 
Q 5175 2375 5150 2100 
Q 4700 2600 3675 3350 
L 3750 3450 
z
M 3350 4050 
Q 3200 4400 2575 5200 
L 2650 5275 
Q 3250 4750 3525 4525 
Q 3475 4225 3350 4050 
z
" transform="scale(0.015625)"/>
       <path id="FangSong-5728" d="M 2900 3475 
Q 2525 2925 2200 2525 
L 2125 -325 
Q 2125 -800 2025 -625 
L 1775 -150 
Q 1925 -100 1900 225 
L 1950 2200 
Q 1425 1575 550 925 
L 475 1000 
Q 1650 2000 2600 3475 
Q 1500 3375 1300 3300 
L 1025 3600 
Q 1575 3575 2725 3700 
Q 3025 4250 3137 4625 
Q 3250 5000 3125 5175 
L 3200 5250 
L 3575 4750 
Q 3500 4800 3350 4475 
Q 3200 4150 3000 3725 
Q 4950 3875 5225 3975 
L 5550 3675 
Q 4925 3675 2900 3475 
z
M 3675 3350 
L 4100 3025 
Q 3975 2975 3975 2575 
L 3950 1850 
Q 4875 1925 5050 2000 
L 5325 1725 
Q 4975 1725 3950 1625 
L 3925 250 
Q 5300 325 5600 425 
L 5925 175 
Q 5425 150 4187 62 
Q 2950 -25 2450 -100 
L 2175 150 
Q 2800 150 3700 225 
L 3725 1600 
Q 2875 1525 2900 1475 
L 2600 1750 
Q 3025 1750 3725 1825 
L 3750 2675 
Q 3775 3150 3625 3275 
L 3675 3350 
z
" transform="scale(0.015625)"/>
       <path id="FangSong-6240" d="M 1475 1700 
Q 1350 475 525 -650 
L 450 -600 
Q 925 200 1100 850 
Q 1275 1500 1300 2325 
Q 1325 3150 1325 3725 
Q 1325 4300 1250 4575 
L 1325 4600 
L 1525 4125 
Q 2000 4400 2362 4675 
Q 2725 4950 2700 5075 
L 2750 5100 
L 2950 4700 
Q 2900 4700 2462 4450 
Q 2025 4200 1550 3975 
L 1550 3225 
L 2650 3350 
L 2800 3550 
L 3075 3300 
L 2900 3075 
L 2825 2100 
L 2975 1825 
L 1475 1700 
z
M 3450 4800 
L 3650 4325 
Q 4525 4675 4787 4862 
Q 5050 5050 5050 5150 
L 5075 5175 
L 5350 4825 
Q 5225 4750 4850 4600 
Q 4475 4450 3675 4150 
L 3675 2950 
Q 5525 3150 5675 3225 
L 5975 2925 
Q 5625 2925 4850 2850 
L 4825 -450 
Q 4825 -700 4750 -700 
L 4500 -250 
Q 4625 -125 4600 100 
L 4625 2825 
L 3675 2725 
Q 3500 525 2050 -675 
L 1975 -600 
Q 2825 250 3100 1062 
Q 3375 1875 3412 2562 
Q 3450 3250 3450 3775 
Q 3450 4300 3375 4725 
L 3450 4800 
z
M 2675 3100 
L 1550 2975 
L 1525 1950 
L 2575 2050 
L 2675 3100 
z
" transform="scale(0.015625)"/>
       <path id="FangSong-6709" d="M 350 1425 
Q 1625 2375 2475 3650 
Q 1225 3550 1075 3525 
L 750 3800 
Q 1300 3775 2625 3875 
Q 2950 4425 3062 4787 
Q 3175 5150 3100 5275 
L 3175 5300 
L 3475 4875 
Q 3375 4900 3275 4650 
Q 3175 4400 2925 3900 
Q 5200 4075 5425 4150 
L 5750 3850 
Q 5275 3850 2775 3675 
Q 2550 3325 2275 3000 
L 2425 2850 
L 4275 3000 
L 4450 3200 
L 4725 2975 
L 4550 2775 
L 4550 100 
Q 4550 -325 4350 -650 
Q 4125 -325 3575 175 
L 3650 250 
L 4250 -150 
Q 4325 100 4325 400 
L 4325 2775 
L 2500 2625 
L 2500 2050 
Q 3925 2175 3875 2250 
L 4150 1975 
Q 3825 1975 2500 1825 
L 2500 1250 
Q 3775 1375 3950 1450 
L 4225 1200 
Q 3875 1175 2500 1025 
L 2500 -475 
Q 2500 -700 2400 -575 
L 2175 -150 
Q 2300 -25 2275 250 
L 2275 2300 
Q 2275 2550 2200 2900 
Q 1450 2025 400 1300 
L 350 1425 
z
" transform="scale(0.015625)"/>
       <path id="FangSong-4e2d" d="M 1625 1800 
Q 1650 1375 1525 1475 
L 1325 1800 
Q 1400 1925 1400 2125 
L 1375 3300 
Q 1350 3600 1250 3925 
L 1375 3950 
L 1575 3450 
L 3100 3575 
L 3100 4450 
Q 3100 4875 2900 5125 
L 2975 5200 
L 3450 4825 
Q 3300 4750 3325 4425 
L 3325 3600 
L 4925 3750 
L 5075 4025 
L 5375 3750 
L 5225 3575 
L 5025 2300 
L 5325 2075 
L 3325 1925 
L 3325 -275 
Q 3300 -700 3225 -550 
L 2950 -175 
Q 3100 -50 3100 300 
L 3100 1900 
L 1625 1800 
z
M 4950 3525 
L 3325 3375 
L 3325 2150 
L 4800 2275 
L 4950 3525 
z
M 1625 2025 
L 3100 2125 
L 3100 3350 
L 1600 3225 
L 1625 2025 
z
" transform="scale(0.015625)"/>
       <path id="FangSong-5360" d="M 1625 1625 
Q 1575 2125 1525 2375 
L 1625 2425 
L 1850 2000 
L 2925 2075 
L 2925 4500 
Q 2900 4975 2775 5225 
L 2850 5275 
L 3275 4825 
Q 3150 4825 3150 4350 
L 3150 3650 
Q 5225 3825 5250 3925 
L 5600 3625 
Q 5250 3650 3150 3400 
L 3150 2100 
L 4450 2175 
L 4625 2425 
L 4950 2150 
L 4750 1950 
L 4500 375 
L 4750 150 
L 1925 -25 
Q 1975 -500 1875 -425 
L 1575 -50 
Q 1650 50 1650 400 
L 1625 1625 
z
M 1900 225 
L 4250 375 
L 4475 1925 
L 1850 1750 
L 1900 225 
z
" transform="scale(0.015625)"/>
       <path id="FangSong-7684" d="M 1175 400 
Q 1200 -350 1100 -275 
L 825 200 
Q 950 300 950 825 
L 925 3075 
Q 925 3450 800 3750 
L 900 3800 
L 1150 3400 
L 1400 3425 
Q 1600 4025 1700 4450 
Q 1800 4875 1675 5075 
L 1750 5125 
L 2150 4675 
Q 2050 4700 1912 4362 
Q 1775 4025 1550 3450 
L 2500 3575 
L 2625 3875 
L 2975 3625 
L 2775 3325 
Q 2750 2250 2725 1475 
Q 2700 700 2650 325 
Q 2600 -50 2550 -37 
Q 2500 -25 2350 500 
L 1175 400 
z
M 1175 650 
Q 1950 750 2100 825 
L 2400 525 
Q 2475 800 2487 1537 
Q 2500 2275 2525 3325 
L 1150 3150 
L 1150 2100 
Q 1925 2175 2175 2250 
L 2375 1975 
Q 2025 1950 1175 1825 
L 1175 650 
z
M 5275 3625 
L 5450 3925 
L 5775 3650 
L 5575 3450 
Q 5450 2125 5287 1075 
Q 5125 25 4850 -550 
Q 4525 -175 3850 400 
L 3900 475 
L 4775 -50 
Q 4900 225 5062 1225 
Q 5225 2225 5300 3400 
L 3575 3200 
Q 3300 2575 2875 1925 
L 2775 2000 
Q 3225 2875 3462 3525 
Q 3700 4175 3800 4612 
Q 3900 5050 3800 5150 
L 3875 5200 
L 4250 4775 
Q 4150 4800 4037 4462 
Q 3925 4125 3650 3425 
L 5275 3625 
z
M 4525 1775 
Q 4475 1575 4375 1325 
Q 4025 1925 3550 2550 
L 3625 2625 
Q 4100 2200 4525 1775 
z
" transform="scale(0.015625)"/>
       <path id="FangSong-767e" d="M 2175 -125 
Q 2200 -775 2075 -625 
L 1825 -225 
Q 1925 -75 1925 125 
L 1875 2600 
Q 1850 3125 1775 3425 
L 1850 3450 
L 2075 3000 
L 2825 3050 
Q 2900 3350 3000 3675 
Q 3100 4000 3125 4300 
Q 1200 4175 1125 4125 
L 750 4425 
Q 1175 4400 3337 4562 
Q 5500 4725 5625 4800 
L 5975 4525 
Q 5450 4525 3175 4300 
L 3500 4025 
Q 3375 4025 3275 3787 
Q 3175 3550 2950 3050 
L 4525 3175 
L 4650 3400 
L 5000 3200 
L 4825 2975 
Q 4775 2000 4700 1062 
Q 4625 125 4562 -262 
Q 4500 -650 4425 -625 
Q 4350 -600 4325 0 
L 2175 -125 
z
M 4350 75 
Q 4400 425 4450 1075 
Q 4500 1725 4550 2925 
L 2100 2750 
L 2125 1625 
Q 3875 1750 3975 1825 
L 4225 1550 
Q 3750 1550 2125 1400 
L 2175 100 
Q 3900 175 4050 300 
L 4350 75 
z
" transform="scale(0.015625)"/>
       <path id="FangSong-5206" d="M 3475 -175 
Q 3675 125 4050 2375 
L 2900 2275 
Q 2625 1150 2112 500 
Q 1600 -150 600 -600 
L 550 -500 
Q 1400 -75 1912 600 
Q 2425 1275 2625 2250 
Q 2025 2200 1900 2125 
L 1650 2425 
Q 2000 2400 4050 2625 
L 4225 2825 
L 4500 2500 
L 4300 2400 
Q 4125 1275 3950 500 
Q 3775 -275 3525 -650 
Q 3200 -225 2600 275 
L 2650 350 
L 3475 -175 
z
M 4925 2175 
Q 4925 2300 4525 2962 
Q 4125 3625 3700 4362 
Q 3275 5100 3100 5125 
L 3125 5225 
L 3450 5200 
Q 3450 5150 3475 5062 
Q 3500 4975 3850 4400 
Q 4200 3825 4562 3275 
Q 4925 2725 5150 2575 
Q 5375 2425 5975 2400 
L 6000 2275 
L 4925 2175 
z
M 500 1725 
Q 1000 2150 1425 2725 
Q 1850 3300 2137 3887 
Q 2425 4475 2325 4675 
L 2425 4700 
L 2675 4200 
Q 2625 4250 2300 3675 
Q 1950 3050 1587 2600 
Q 1225 2150 575 1625 
L 500 1725 
z
" transform="scale(0.015625)"/>
       <path id="FangSong-6bd4" d="M 3500 2125 
Q 3925 2425 4487 2975 
Q 5050 3525 4950 3750 
L 5025 3775 
L 5250 3225 
Q 5175 3250 4875 3000 
Q 4575 2750 4287 2525 
Q 4000 2300 3500 1900 
L 3500 575 
Q 3475 -100 4150 -100 
L 4800 -100 
Q 5275 -100 5375 12 
Q 5475 125 5450 1350 
L 5575 1350 
Q 5600 825 5637 412 
Q 5675 0 5800 -175 
Q 5375 -325 4800 -325 
L 4150 -325 
Q 3225 -350 3275 550 
L 3275 4300 
Q 3275 4875 3150 5150 
L 3200 5200 
L 3625 4850 
Q 3475 4825 3500 4250 
L 3500 2125 
z
M 1500 2575 
Q 1900 2625 2337 2712 
Q 2775 2800 2800 2850 
L 3075 2600 
Q 2875 2575 2350 2475 
Q 1825 2375 1775 2325 
L 1500 2525 
L 1500 150 
L 2925 1075 
L 2975 1025 
Q 1550 -75 1375 -350 
L 1200 0 
Q 1275 75 1275 350 
L 1275 3925 
Q 1275 4475 1150 4750 
L 1200 4800 
L 1625 4400 
Q 1475 4375 1500 3925 
L 1500 2575 
z
" transform="scale(0.015625)"/>
      </defs>
      <use xlink:href="#FangSong-71ac"/>
      <use xlink:href="#FangSong-591c" x="100"/>
      <use xlink:href="#FangSong-63d0" x="200"/>
      <use xlink:href="#FangSong-4ea4" x="300"/>
      <use xlink:href="#FangSong-5728" x="400"/>
      <use xlink:href="#FangSong-6240" x="500"/>
      <use xlink:href="#FangSong-6709" x="600"/>
      <use xlink:href="#FangSong-63d0" x="700"/>
      <use xlink:href="#FangSong-4ea4" x="800"/>
      <use xlink:href="#FangSong-4e2d" x="900"/>
      <use xlink:href="#FangSong-5360" x="1000"/>
      <use xlink:href="#FangSong-6709" x="1100"/>
      <use xlink:href="#FangSong-7684" x="1200"/>
      <use xlink:href="#FangSong-767e" x="1300"/>
      <use xlink:href="#FangSong-5206" x="1400"/>
      <use xlink:href="#FangSong-6bd4" x="1500"/>
     </g>
    </g>
   </g>
   <g id="matplotlib.axis_2">
    <g id="ytick_1">
     <g id="line2d_8">
      <defs>
       <path id="mc5b1eab6a1" d="M 0 0 
L -3.5 0 
" style="stroke: #000000; stroke-width: 0.8"/>
      </defs>
      <g>
       <use xlink:href="#mc5b1eab6a1" x="57.6" y="270.276197" style="stroke: #000000; stroke-width: 0.8"/>
      </g>
     </g>
     <g id="text_9">
      <!-- 400 -->
      <g transform="translate(35.6 273.77229) scale(0.1 -0.1)">
       <use xlink:href="#FangSong-34"/>
       <use xlink:href="#FangSong-30" x="50"/>
       <use xlink:href="#FangSong-30" x="100"/>
      </g>
     </g>
    </g>
    <g id="ytick_2">
     <g id="line2d_9">
      <g>
       <use xlink:href="#mc5b1eab6a1" x="57.6" y="213.620459" style="stroke: #000000; stroke-width: 0.8"/>
      </g>
     </g>
     <g id="text_10">
      <!-- 600 -->
      <g transform="translate(35.6 217.116553) scale(0.1 -0.1)">
       <use xlink:href="#FangSong-36"/>
       <use xlink:href="#FangSong-30" x="50"/>
       <use xlink:href="#FangSong-30" x="100"/>
      </g>
     </g>
    </g>
    <g id="ytick_3">
     <g id="line2d_10">
      <g>
       <use xlink:href="#mc5b1eab6a1" x="57.6" y="156.964721" style="stroke: #000000; stroke-width: 0.8"/>
      </g>
     </g>
     <g id="text_11">
      <!-- 800 -->
      <g transform="translate(35.6 160.460815) scale(0.1 -0.1)">
       <defs>
        <path id="FangSong-38" d="M 600 1025 
Q 600 625 862 375 
Q 1125 125 1525 125 
Q 2000 125 2212 375 
Q 2425 625 2425 1000 
Q 2425 1325 2125 1625 
Q 1825 1925 1225 2175 
Q 925 1975 762 1675 
Q 600 1375 600 1025 
z
M 2800 1075 
Q 2800 600 2450 275 
Q 2100 -50 1525 -50 
Q 1000 -50 625 275 
Q 250 600 250 1025 
Q 250 1450 462 1750 
Q 675 2050 1075 2275 
Q 725 2450 537 2712 
Q 350 2975 350 3300 
Q 350 3725 675 4025 
Q 1000 4325 1575 4325 
Q 2100 4325 2425 4025 
Q 2750 3725 2750 3300 
Q 2750 3000 2562 2737 
Q 2375 2475 1975 2275 
Q 2400 2025 2600 1725 
Q 2800 1425 2800 1075 
z
M 2400 3275 
Q 2400 3625 2200 3887 
Q 2000 4150 1575 4150 
Q 1100 4150 900 3900 
Q 700 3650 700 3375 
Q 700 3100 987 2837 
Q 1275 2575 1800 2375 
Q 2100 2525 2250 2750 
Q 2400 2975 2400 3275 
z
" transform="scale(0.015625)"/>
       </defs>
       <use xlink:href="#FangSong-38"/>
       <use xlink:href="#FangSong-30" x="50"/>
       <use xlink:href="#FangSong-30" x="100"/>
      </g>
     </g>
    </g>
    <g id="ytick_4">
     <g id="line2d_11">
      <g>
       <use xlink:href="#mc5b1eab6a1" x="57.6" y="100.308984" style="stroke: #000000; stroke-width: 0.8"/>
      </g>
     </g>
     <g id="text_12">
      <!-- 1000 -->
      <g transform="translate(30.6 103.805077) scale(0.1 -0.1)">
       <use xlink:href="#FangSong-31"/>
       <use xlink:href="#FangSong-30" x="50"/>
       <use xlink:href="#FangSong-30" x="100"/>
       <use xlink:href="#FangSong-30" x="150"/>
      </g>
     </g>
    </g>
    <g id="ytick_5">
     <g id="line2d_12">
      <g>
       <use xlink:href="#mc5b1eab6a1" x="57.6" y="43.653246" style="stroke: #000000; stroke-width: 0.8"/>
      </g>
     </g>
     <g id="text_13">
      <!-- 1200 -->
      <g transform="translate(30.6 47.14934) scale(0.1 -0.1)">
       <use xlink:href="#FangSong-31"/>
       <use xlink:href="#FangSong-32" x="50"/>
       <use xlink:href="#FangSong-30" x="100"/>
       <use xlink:href="#FangSong-30" x="150"/>
      </g>
     </g>
    </g>
    <g id="text_14">
     <!-- 最终的得分 -->
     <g transform="translate(25.154688 199.528) rotate(-90) scale(0.1 -0.1)">
      <defs>
       <path id="FangSong-6700" d="M 4925 -325 
Q 5000 -200 4250 750 
Q 3700 25 3025 -450 
Q 3025 -700 2925 -625 
L 2675 -250 
Q 2800 -100 2800 175 
L 2800 775 
Q 1325 150 1175 25 
L 775 275 
Q 1050 300 1575 500 
L 1575 2575 
Q 1025 2525 925 2475 
L 600 2775 
Q 1225 2775 3312 2950 
Q 5400 3125 5425 3200 
L 5750 2925 
Q 5375 2925 3025 2725 
L 3025 1050 
L 3475 1250 
L 3500 1125 
L 3025 875 
L 3025 -300 
Q 3575 150 4075 925 
Q 3925 1150 3737 1387 
Q 3550 1625 3400 1600 
L 3375 1675 
L 3750 1750 
Q 3750 1650 3837 1525 
Q 3925 1400 4175 1125 
Q 4425 1525 4650 2125 
Q 3675 1975 3500 1875 
L 3250 2175 
Q 3600 2175 4625 2350 
L 4800 2575 
L 5150 2325 
L 4950 2150 
Q 4675 1475 4350 925 
Q 4725 450 4862 287 
Q 5000 125 5125 25 
Q 5250 -75 5975 -125 
L 5975 -225 
L 4925 -325 
z
M 4525 5200 
L 4825 4925 
L 4625 4750 
L 4475 3750 
L 4700 3500 
L 2150 3300 
Q 2150 3100 2075 3125 
L 1850 3400 
Q 1950 3500 1925 3700 
L 1925 4550 
Q 1925 4900 1875 5125 
L 1975 5150 
L 2125 4775 
L 4375 4975 
L 4525 5200 
z
M 2150 4075 
L 2150 3550 
L 4250 3725 
L 4400 4750 
L 2150 4550 
L 2150 4150 
Q 2600 4175 3162 4237 
Q 3725 4300 3950 4375 
L 4100 4100 
Q 3825 4100 3300 4050 
Q 2775 4000 2400 3925 
L 2150 4075 
z
M 2800 2650 
L 1800 2575 
L 1800 2100 
Q 2525 2150 2550 2200 
L 2775 1975 
Q 2550 1975 1800 1850 
L 1800 1450 
Q 2375 1500 2475 1550 
L 2750 1350 
Q 2500 1350 1800 1225 
L 1800 600 
L 2800 925 
L 2800 2650 
z
" transform="scale(0.015625)"/>
       <path id="FangSong-7ec8" d="M 4525 4150 
L 4700 4400 
L 5000 4075 
L 4775 3900 
Q 4475 3300 4075 2700 
Q 4900 1900 5062 1850 
Q 5225 1800 5312 1775 
Q 5400 1750 5925 1725 
L 5925 1600 
Q 5325 1525 5025 1450 
Q 4975 1575 4712 1825 
Q 4450 2075 3950 2575 
Q 3200 1675 2150 1100 
L 2075 1200 
Q 3025 1800 3775 2725 
Q 3550 2975 3050 3350 
Q 2700 2750 2450 2500 
L 2350 2550 
Q 2775 3225 2962 3637 
Q 3150 4050 3325 4550 
Q 3500 5050 3350 5200 
L 3425 5250 
L 3800 4850 
Q 3700 4825 3612 4637 
Q 3525 4450 3350 4000 
L 4525 4150 
z
M 2000 3225 
Q 2300 3600 2225 3800 
L 2275 3825 
L 2550 3350 
Q 2425 3400 2175 3050 
Q 1925 2700 1662 2362 
Q 1400 2025 1175 1725 
L 2525 2025 
L 2550 1925 
Q 1150 1475 950 1325 
L 725 1700 
L 975 1750 
Q 1575 2550 1875 3025 
Q 1075 2850 850 2700 
L 625 3075 
L 850 3100 
Q 1000 3350 1200 3725 
Q 1400 4100 1575 4512 
Q 1750 4925 1650 5100 
L 1725 5150 
L 2050 4700 
Q 1975 4725 1825 4450 
L 1525 3925 
Q 1375 3675 1050 3100 
L 2000 3225 
z
M 3375 3450 
Q 3375 3300 3900 2850 
Q 4300 3450 4475 3900 
Q 3775 3825 3525 3750 
L 3350 3950 
L 3075 3400 
L 3375 3450 
z
M 2450 825 
Q 900 150 775 25 
L 450 300 
Q 900 375 2425 950 
L 2450 825 
z
M 4550 -600 
Q 3875 -100 3100 375 
L 3125 475 
Q 3875 150 4525 -150 
Q 4575 -350 4550 -600 
z
M 4475 800 
Q 3925 1200 3325 1575 
L 3375 1675 
Q 3975 1425 4500 1225 
Q 4500 1000 4475 800 
z
" transform="scale(0.015625)"/>
       <path id="FangSong-5f97" d="M 4750 5075 
L 5025 4850 
L 4875 4675 
L 4750 3450 
L 4925 3225 
L 3075 3075 
Q 3075 2825 3000 2850 
L 2775 3175 
Q 2875 3225 2850 3500 
L 2825 4475 
Q 2825 4725 2725 5050 
L 2825 5100 
L 3025 4725 
L 4600 4875 
L 4750 5075 
z
M 4275 -150 
Q 4350 50 4325 225 
L 4325 1575 
L 3000 1450 
Q 3225 1175 3450 875 
L 3250 525 
Q 3100 975 2875 1450 
Q 2450 1425 2225 1350 
L 1925 1600 
Q 2425 1600 4325 1800 
L 4325 2150 
Q 4325 2325 4275 2450 
Q 2875 2300 2700 2250 
L 2425 2500 
Q 2875 2500 3937 2637 
Q 5000 2775 5125 2825 
L 5400 2550 
Q 5100 2550 4425 2450 
L 4625 2300 
Q 4550 2225 4550 2000 
L 4550 1825 
Q 5550 1925 5725 2000 
L 6000 1725 
Q 5675 1725 4550 1600 
L 4550 125 
Q 4550 -400 4350 -675 
Q 4025 -225 3450 275 
L 3525 350 
L 4275 -150 
z
M 3050 4025 
Q 4150 4100 4325 4175 
L 4500 3925 
Q 4250 3925 3075 3800 
L 3075 3300 
L 4525 3425 
L 4650 4650 
L 3050 4500 
L 3050 4025 
z
M 1550 2400 
Q 1100 1925 525 1425 
L 450 1500 
Q 1025 2075 1600 2812 
Q 2175 3550 2100 3725 
L 2175 3775 
L 2375 3300 
Q 2275 3275 2175 3175 
Q 2075 3075 1775 2675 
L 1750 -300 
Q 1750 -700 1675 -625 
L 1425 -150 
Q 1550 -75 1525 300 
L 1550 2400 
z
M 600 3300 
Q 1325 3975 1662 4387 
Q 2000 4800 1950 4950 
L 2025 4975 
L 2200 4550 
Q 2075 4500 1712 4137 
Q 1350 3775 650 3200 
L 600 3300 
z
" transform="scale(0.015625)"/>
      </defs>
      <use xlink:href="#FangSong-6700"/>
      <use xlink:href="#FangSong-7ec8" x="100"/>
      <use xlink:href="#FangSong-7684" x="200"/>
      <use xlink:href="#FangSong-5f97" x="300"/>
      <use xlink:href="#FangSong-5206" x="400"/>
     </g>
    </g>
   </g>
   <g id="patch_3">
    <path d="M 57.6 307.584 
L 57.6 41.472 
" style="fill: none; stroke: #000000; stroke-width: 0.8; stroke-linejoin: miter; stroke-linecap: square"/>
   </g>
   <g id="patch_4">
    <path d="M 414.72 307.584 
L 414.72 41.472 
" style="fill: none; stroke: #000000; stroke-width: 0.8; stroke-linejoin: miter; stroke-linecap: square"/>
   </g>
   <g id="patch_5">
    <path d="M 57.6 307.584 
L 414.72 307.584 
" style="fill: none; stroke: #000000; stroke-width: 0.8; stroke-linejoin: miter; stroke-linecap: square"/>
   </g>
   <g id="patch_6">
    <path d="M 57.6 41.472 
L 414.72 41.472 
" style="fill: none; stroke: #000000; stroke-width: 0.8; stroke-linejoin: miter; stroke-linecap: square"/>
   </g>
   <g id="text_15">
    <!-- 熬夜提交在所有提交中占有的百分比-最终的得分 散点图 -->
    <g transform="translate(86.16 35.472) scale(0.12 -0.12)">
     <defs>
      <path id="FangSong-2d" d="M 175 2125 
L 175 2350 
L 2950 2350 
L 2950 2125 
L 175 2125 
z
" transform="scale(0.015625)"/>
      <path id="FangSong-20" transform="scale(0.015625)"/>
      <path id="FangSong-6563" d="M 3650 2275 
Q 3450 1875 3175 1425 
L 3075 1450 
Q 3450 2275 3650 2875 
Q 3850 3475 4000 4237 
Q 4150 5000 4000 5050 
L 4075 5125 
L 4425 4800 
Q 4350 4750 4275 4425 
Q 4225 4100 4000 3300 
Q 5325 3425 5375 3500 
L 5675 3200 
Q 5450 3200 4700 3125 
L 5000 2800 
Q 4950 2825 4825 2437 
Q 4700 2050 4400 1275 
Q 5000 175 5175 37 
Q 5350 -100 5950 -200 
L 5950 -325 
L 4925 -375 
Q 5050 -325 4275 1075 
Q 3725 150 2875 -550 
L 2800 -450 
Q 3575 275 4150 1275 
Q 3975 1650 3862 1875 
Q 3750 2100 3650 2275 
z
M 2725 3175 
Q 3325 3200 3375 3275 
L 3650 2975 
Q 3300 2975 2075 2850 
Q 850 2725 700 2675 
L 400 2950 
Q 775 2925 1600 3025 
L 1600 3625 
Q 1075 3550 1025 3525 
L 750 3800 
Q 1125 3800 1600 3850 
L 1600 4300 
Q 1625 4775 1475 4950 
L 1550 5000 
L 1925 4650 
Q 1800 4575 1825 4300 
L 1825 3875 
L 2525 3950 
L 2550 4475 
Q 2575 4975 2475 5075 
L 2550 5150 
L 2900 4800 
Q 2775 4800 2775 4425 
L 2750 3975 
Q 3125 4025 3275 4075 
L 3475 3825 
Q 3225 3825 2750 3750 
L 2725 3175 
z
M 2575 -50 
Q 2625 -75 2625 425 
L 2625 2175 
L 1550 2050 
L 1550 1650 
Q 2100 1700 2350 1775 
L 2525 1525 
Q 2150 1475 1550 1375 
L 1550 950 
Q 2200 1000 2325 1050 
L 2550 800 
Q 2175 800 1550 700 
L 1550 -325 
Q 1575 -700 1450 -575 
L 1225 -175 
Q 1350 0 1325 300 
L 1325 1950 
Q 1325 2300 1250 2550 
L 1350 2600 
L 1525 2300 
L 2650 2425 
L 2775 2600 
L 3025 2350 
L 2850 2175 
L 2850 250 
Q 2850 -250 2700 -600 
Q 2500 -325 2025 125 
L 2075 225 
L 2575 -50 
z
M 3875 2400 
Q 3875 2325 3975 2075 
Q 4075 1825 4250 1525 
Q 4450 1975 4575 2450 
Q 4700 2925 4675 3125 
L 3925 3025 
Q 3825 2700 3675 2350 
L 3875 2400 
z
M 1825 3650 
L 1825 3050 
L 2500 3125 
L 2525 3725 
L 1825 3650 
z
" transform="scale(0.015625)"/>
      <path id="FangSong-70b9" d="M 2125 1275 
Q 2175 925 2075 950 
L 1800 1350 
Q 1925 1425 1900 1850 
Q 1875 2275 1862 2587 
Q 1850 2900 1775 3175 
L 1875 3200 
L 2075 2800 
L 3000 2850 
L 3000 4550 
Q 3025 5000 2850 5175 
L 2925 5250 
L 3350 4850 
Q 3200 4825 3225 4425 
L 3225 3925 
Q 4850 4075 5000 4175 
L 5325 3875 
Q 4875 3875 3225 3700 
L 3225 2875 
L 4325 2975 
L 4500 3175 
L 4775 2900 
L 4550 2725 
L 4400 1675 
L 4600 1425 
L 2125 1275 
z
M 4300 2725 
L 2100 2525 
L 2125 1500 
L 4125 1650 
L 4300 2725 
z
M 5425 -425 
Q 4975 375 4450 1025 
L 4525 1075 
Q 5250 425 5600 75 
Q 5550 -150 5425 -425 
z
M 1625 925 
Q 1475 -175 975 -650 
L 775 -225 
Q 1325 25 1550 950 
L 1625 925 
z
M 3775 -325 
Q 3650 250 3375 875 
L 3475 950 
Q 3875 350 4075 0 
Q 3950 -175 3775 -325 
z
M 2325 875 
Q 2650 225 2750 -125 
Q 2650 -250 2450 -400 
Q 2375 225 2225 825 
L 2325 875 
z
" transform="scale(0.015625)"/>
      <path id="FangSong-56fe" d="M 5375 5050 
L 5675 4775 
L 5450 4550 
Q 5300 25 5262 -275 
Q 5225 -575 5137 -562 
Q 5050 -550 4950 -50 
L 1425 -200 
Q 1450 -675 1350 -675 
L 1075 -200 
Q 1150 -25 1150 175 
L 1125 4250 
Q 1125 4725 1050 5050 
L 1150 5100 
L 1400 4600 
L 5175 4850 
L 5375 5050 
z
M 1400 0 
Q 4100 150 4650 225 
L 4975 25 
Q 5050 200 5075 1825 
L 4175 1675 
Q 4250 1725 3225 2575 
Q 2475 1875 1475 1450 
L 1425 1550 
Q 2275 2000 3075 2725 
Q 2900 2850 2525 3225 
Q 2325 2925 1850 2450 
L 1750 2525 
Q 2500 3400 2950 4450 
L 1375 4350 
L 1400 0 
z
M 3925 3950 
L 4200 3675 
L 4000 3550 
Q 3675 3000 3375 2725 
Q 4000 2175 4250 2050 
Q 4500 1925 5100 1950 
L 5225 4600 
L 3050 4450 
L 3250 4175 
Q 3150 4150 3062 4012 
Q 2975 3875 2800 3625 
L 3750 3775 
L 3925 3950 
z
M 3625 775 
Q 3650 500 3625 250 
Q 3200 700 2500 1275 
L 2600 1375 
Q 3250 975 3625 775 
z
M 2800 3275 
Q 2800 3200 2925 3100 
Q 3050 3000 3200 2850 
Q 3450 3125 3700 3550 
Q 3050 3400 2875 3350 
L 2750 3525 
L 2600 3275 
L 2800 3275 
z
M 2775 2100 
Q 3300 1800 3625 1675 
Q 3650 1425 3625 1225 
Q 3300 1500 2700 1975 
L 2775 2100 
z
" transform="scale(0.015625)"/>
     </defs>
     <use xlink:href="#FangSong-71ac"/>
     <use xlink:href="#FangSong-591c" x="100"/>
     <use xlink:href="#FangSong-63d0" x="200"/>
     <use xlink:href="#FangSong-4ea4" x="300"/>
     <use xlink:href="#FangSong-5728" x="400"/>
     <use xlink:href="#FangSong-6240" x="500"/>
     <use xlink:href="#FangSong-6709" x="600"/>
     <use xlink:href="#FangSong-63d0" x="700"/>
     <use xlink:href="#FangSong-4ea4" x="800"/>
     <use xlink:href="#FangSong-4e2d" x="900"/>
     <use xlink:href="#FangSong-5360" x="1000"/>
     <use xlink:href="#FangSong-6709" x="1100"/>
     <use xlink:href="#FangSong-7684" x="1200"/>
     <use xlink:href="#FangSong-767e" x="1300"/>
     <use xlink:href="#FangSong-5206" x="1400"/>
     <use xlink:href="#FangSong-6bd4" x="1500"/>
     <use xlink:href="#FangSong-2d" x="1600"/>
     <use xlink:href="#FangSong-6700" x="1650"/>
     <use xlink:href="#FangSong-7ec8" x="1750"/>
     <use xlink:href="#FangSong-7684" x="1850"/>
     <use xlink:href="#FangSong-5f97" x="1950"/>
     <use xlink:href="#FangSong-5206" x="2050"/>
     <use xlink:href="#FangSong-20" x="2150"/>
     <use xlink:href="#FangSong-6563" x="2200"/>
     <use xlink:href="#FangSong-70b9" x="2300"/>
     <use xlink:href="#FangSong-56fe" x="2400"/>
    </g>
   </g>
  </g>
 </g>
 <defs>
  <clipPath id="p1f026db087">
   <rect x="57.6" y="41.472" width="357.12" height="266.112"/>
  </clipPath>
 </defs>
</svg>
