<?xml version="1.0" encoding="utf-8" standalone="no"?>
<!DOCTYPE svg PUBLIC "-//W3C//DTD SVG 1.1//EN"
  "http://www.w3.org/Graphics/SVG/1.1/DTD/svg11.dtd">
<svg xmlns:xlink="http://www.w3.org/1999/xlink" width="460.8pt" height="345.6pt" viewBox="0 0 460.8 345.6" xmlns="http://www.w3.org/2000/svg" version="1.1">
 <metadata>
  <rdf:RDF xmlns:dc="http://purl.org/dc/elements/1.1/" xmlns:cc="http://creativecommons.org/ns#" xmlns:rdf="http://www.w3.org/1999/02/22-rdf-syntax-ns#">
   <cc:Work>
    <dc:type rdf:resource="http://purl.org/dc/dcmitype/StillImage"/>
    <dc:date>2023-02-02T09:59:00.040030</dc:date>
    <dc:format>image/svg+xml</dc:format>
    <dc:creator>
     <cc:Agent>
      <dc:title>Matplotlib v3.6.1, https://matplotlib.org/</dc:title>
     </cc:Agent>
    </dc:creator>
   </cc:Work>
  </rdf:RDF>
 </metadata>
 <defs>
  <style type="text/css">*{stroke-linejoin: round; stroke-linecap: butt}</style>
 </defs>
 <g id="figure_1">
  <g id="patch_1">
   <path d="M 0 345.6 
L 460.8 345.6 
L 460.8 0 
L 0 0 
z
" style="fill: #ffffff"/>
  </g>
  <g id="axes_1">
   <g id="patch_2">
    <path d="M 57.6 307.584 
L 414.72 307.584 
L 414.72 41.472 
L 57.6 41.472 
z
" style="fill: #ffffff"/>
   </g>
   <g id="matplotlib.axis_1">
    <g id="xtick_1">
     <g id="line2d_1">
      <defs>
       <path id="m90962bd577" d="M 0 0 
L 0 3.5 
" style="stroke: #000000; stroke-width: 0.8"/>
      </defs>
      <g>
       <use xlink:href="#m90962bd577" x="73.832727" y="307.584" style="stroke: #000000; stroke-width: 0.8"/>
      </g>
     </g>
     <g id="text_1">
      <!-- 0 -->
      <g transform="translate(71.332727 321.576187) scale(0.1 -0.1)">
       <defs>
        <path id="FangSong-30" d="M 1575 4125 
Q 1225 4125 987 3587 
Q 750 3050 750 2150 
Q 750 1200 987 675 
Q 1225 150 1575 150 
Q 1950 150 2162 675 
Q 2375 1200 2375 2150 
Q 2375 3050 2175 3587 
Q 1975 4125 1575 4125 
z
M 1575 -50 
Q 1025 -50 650 525 
Q 275 1100 275 2150 
Q 275 3125 637 3725 
Q 1000 4325 1575 4325 
Q 2125 4325 2487 3750 
Q 2850 3175 2850 2150 
Q 2850 1125 2487 537 
Q 2125 -50 1575 -50 
z
" transform="scale(0.015625)"/>
       </defs>
       <use xlink:href="#FangSong-30"/>
      </g>
     </g>
    </g>
    <g id="xtick_2">
     <g id="line2d_2">
      <g>
       <use xlink:href="#m90962bd577" x="144.409802" y="307.584" style="stroke: #000000; stroke-width: 0.8"/>
      </g>
     </g>
     <g id="text_2">
      <!-- 5 -->
      <g transform="translate(141.909802 321.576187) scale(0.1 -0.1)">
       <defs>
        <path id="FangSong-35" d="M 1700 2750 
Q 2175 2750 2475 2387 
Q 2775 2025 2775 1425 
Q 2775 750 2462 350 
Q 2150 -50 1500 -50 
Q 1050 -50 700 212 
Q 350 475 350 850 
Q 350 1000 437 1112 
Q 525 1225 675 1225 
Q 825 1225 875 1125 
Q 925 1025 925 950 
Q 925 800 850 712 
Q 775 625 775 525 
Q 775 325 1012 225 
Q 1250 125 1525 125 
Q 1925 125 2137 450 
Q 2350 775 2350 1375 
Q 2350 1875 2162 2187 
Q 1975 2500 1600 2500 
Q 1325 2500 1125 2400 
Q 925 2300 750 1975 
L 525 2000 
L 650 4275 
L 2700 4275 
L 2625 3900 
L 825 3900 
L 725 2250 
Q 975 2600 1212 2675 
Q 1450 2750 1700 2750 
z
" transform="scale(0.015625)"/>
       </defs>
       <use xlink:href="#FangSong-35"/>
      </g>
     </g>
    </g>
    <g id="xtick_3">
     <g id="line2d_3">
      <g>
       <use xlink:href="#m90962bd577" x="214.986877" y="307.584" style="stroke: #000000; stroke-width: 0.8"/>
      </g>
     </g>
     <g id="text_3">
      <!-- 10 -->
      <g transform="translate(209.986877 321.576187) scale(0.1 -0.1)">
       <defs>
        <path id="FangSong-31" d="M 1800 4350 
L 1800 550 
Q 1800 350 1925 250 
Q 2050 150 2275 150 
L 2525 150 
L 2525 0 
L 700 0 
L 700 150 
L 925 150 
Q 1175 150 1287 250 
Q 1400 350 1400 550 
L 1400 3575 
Q 1400 3675 1337 3737 
Q 1275 3800 1150 3800 
L 700 3800 
L 700 3950 
L 925 3950 
Q 1225 3950 1412 4050 
Q 1600 4150 1700 4350 
L 1800 4350 
z
" transform="scale(0.015625)"/>
       </defs>
       <use xlink:href="#FangSong-31"/>
       <use xlink:href="#FangSong-30" x="50"/>
      </g>
     </g>
    </g>
    <g id="xtick_4">
     <g id="line2d_4">
      <g>
       <use xlink:href="#m90962bd577" x="285.563953" y="307.584" style="stroke: #000000; stroke-width: 0.8"/>
      </g>
     </g>
     <g id="text_4">
      <!-- 15 -->
      <g transform="translate(280.563953 321.576187) scale(0.1 -0.1)">
       <use xlink:href="#FangSong-31"/>
       <use xlink:href="#FangSong-35" x="50"/>
      </g>
     </g>
    </g>
    <g id="xtick_5">
     <g id="line2d_5">
      <g>
       <use xlink:href="#m90962bd577" x="356.141028" y="307.584" style="stroke: #000000; stroke-width: 0.8"/>
      </g>
     </g>
     <g id="text_5">
      <!-- 20 -->
      <g transform="translate(351.141028 321.576187) scale(0.1 -0.1)">
       <defs>
        <path id="FangSong-32" d="M 2300 3225 
Q 2300 3675 2100 3912 
Q 1900 4150 1500 4150 
Q 1200 4150 987 3987 
Q 775 3825 775 3575 
Q 775 3425 862 3325 
Q 950 3225 950 3125 
Q 950 3000 887 2937 
Q 825 2875 700 2875 
Q 550 2875 462 2962 
Q 375 3050 375 3250 
Q 375 3775 750 4050 
Q 1125 4325 1550 4325 
Q 2150 4325 2437 4025 
Q 2725 3725 2725 3275 
Q 2725 2975 2587 2675 
Q 2450 2375 2150 2100 
Q 1425 1400 1037 962 
Q 650 525 575 375 
L 2050 375 
Q 2275 375 2425 550 
Q 2575 725 2625 1075 
L 2775 1075 
L 2625 0 
L 300 0 
L 300 325 
Q 425 550 712 900 
Q 1000 1250 1475 1725 
Q 1900 2150 2100 2525 
Q 2300 2900 2300 3225 
z
" transform="scale(0.015625)"/>
       </defs>
       <use xlink:href="#FangSong-32"/>
       <use xlink:href="#FangSong-30" x="50"/>
      </g>
     </g>
    </g>
    <g id="text_6">
     <!-- 一天中的时间（单位:小时） -->
     <g transform="translate(173.66 334.951187) scale(0.1 -0.1)">
      <defs>
       <path id="FangSong-4e00" d="M 5875 2575 
Q 5275 2550 3362 2400 
Q 1450 2250 1000 2200 
L 525 2450 
Q 1475 2475 3275 2625 
Q 5075 2775 5400 2875 
L 5875 2575 
z
" transform="scale(0.015625)"/>
       <path id="FangSong-5929" d="M 4675 -350 
Q 4700 -250 4275 562 
Q 3850 1375 3125 2625 
Q 2575 450 525 -600 
L 450 -500 
Q 2375 600 2900 2675 
Q 1350 2525 1175 2475 
L 825 2775 
Q 1250 2750 2950 2900 
Q 3075 3800 3100 4375 
Q 1950 4250 1775 4200 
L 1450 4475 
Q 1950 4475 3187 4625 
Q 4425 4775 4675 4850 
L 5025 4575 
Q 4600 4575 3175 4400 
L 3425 4125 
Q 3350 4150 3300 3850 
Q 3250 3550 3175 2925 
Q 5275 3125 5375 3200 
L 5725 2900 
Q 5475 2925 3275 2700 
Q 3925 1575 4275 962 
Q 4625 350 4837 100 
Q 5050 -150 5925 -125 
L 5925 -250 
L 4675 -350 
z
" transform="scale(0.015625)"/>
       <path id="FangSong-4e2d" d="M 1625 1800 
Q 1650 1375 1525 1475 
L 1325 1800 
Q 1400 1925 1400 2125 
L 1375 3300 
Q 1350 3600 1250 3925 
L 1375 3950 
L 1575 3450 
L 3100 3575 
L 3100 4450 
Q 3100 4875 2900 5125 
L 2975 5200 
L 3450 4825 
Q 3300 4750 3325 4425 
L 3325 3600 
L 4925 3750 
L 5075 4025 
L 5375 3750 
L 5225 3575 
L 5025 2300 
L 5325 2075 
L 3325 1925 
L 3325 -275 
Q 3300 -700 3225 -550 
L 2950 -175 
Q 3100 -50 3100 300 
L 3100 1900 
L 1625 1800 
z
M 4950 3525 
L 3325 3375 
L 3325 2150 
L 4800 2275 
L 4950 3525 
z
M 1625 2025 
L 3100 2125 
L 3100 3350 
L 1600 3225 
L 1625 2025 
z
" transform="scale(0.015625)"/>
       <path id="FangSong-7684" d="M 1175 400 
Q 1200 -350 1100 -275 
L 825 200 
Q 950 300 950 825 
L 925 3075 
Q 925 3450 800 3750 
L 900 3800 
L 1150 3400 
L 1400 3425 
Q 1600 4025 1700 4450 
Q 1800 4875 1675 5075 
L 1750 5125 
L 2150 4675 
Q 2050 4700 1912 4362 
Q 1775 4025 1550 3450 
L 2500 3575 
L 2625 3875 
L 2975 3625 
L 2775 3325 
Q 2750 2250 2725 1475 
Q 2700 700 2650 325 
Q 2600 -50 2550 -37 
Q 2500 -25 2350 500 
L 1175 400 
z
M 1175 650 
Q 1950 750 2100 825 
L 2400 525 
Q 2475 800 2487 1537 
Q 2500 2275 2525 3325 
L 1150 3150 
L 1150 2100 
Q 1925 2175 2175 2250 
L 2375 1975 
Q 2025 1950 1175 1825 
L 1175 650 
z
M 5275 3625 
L 5450 3925 
L 5775 3650 
L 5575 3450 
Q 5450 2125 5287 1075 
Q 5125 25 4850 -550 
Q 4525 -175 3850 400 
L 3900 475 
L 4775 -50 
Q 4900 225 5062 1225 
Q 5225 2225 5300 3400 
L 3575 3200 
Q 3300 2575 2875 1925 
L 2775 2000 
Q 3225 2875 3462 3525 
Q 3700 4175 3800 4612 
Q 3900 5050 3800 5150 
L 3875 5200 
L 4250 4775 
Q 4150 4800 4037 4462 
Q 3925 4125 3650 3425 
L 5275 3625 
z
M 4525 1775 
Q 4475 1575 4375 1325 
Q 4025 1925 3550 2550 
L 3625 2625 
Q 4100 2200 4525 1775 
z
" transform="scale(0.015625)"/>
       <path id="FangSong-65f6" d="M 1200 725 
Q 1225 -50 1100 125 
L 875 550 
Q 1000 725 975 1125 
L 975 3350 
Q 975 3850 900 4375 
L 975 4400 
L 1150 3925 
L 2275 4100 
L 2400 4325 
L 2700 4100 
L 2525 3875 
Q 2525 1425 2462 837 
Q 2400 250 2325 337 
Q 2250 425 2200 850 
L 1200 725 
z
M 1200 975 
Q 1925 1050 1975 1100 
L 2225 850 
Q 2275 1625 2275 2175 
L 2275 3825 
L 1200 3675 
L 1200 2525 
Q 1875 2600 2025 2700 
L 2250 2400 
Q 1900 2375 1200 2275 
L 1200 975 
z
M 4325 5250 
L 4775 4875 
Q 4625 4775 4650 4300 
L 4650 3100 
Q 5650 3225 5650 3325 
L 6000 3025 
Q 5625 3000 4650 2875 
L 4650 425 
Q 4675 -350 4475 -675 
Q 4225 -325 3400 275 
L 3450 375 
L 4375 -150 
Q 4425 150 4425 425 
L 4425 2850 
Q 3100 2675 2900 2600 
L 2550 2900 
Q 3000 2900 4425 3075 
L 4425 4400 
Q 4450 4925 4250 5175 
L 4325 5250 
z
M 3525 1275 
Q 3325 1850 3050 2450 
L 3125 2500 
Q 3425 2100 3725 1675 
Q 3650 1500 3525 1275 
z
" transform="scale(0.015625)"/>
       <path id="FangSong-95f4" d="M 4150 1450 
L 2525 1300 
Q 2550 800 2450 900 
L 2225 1275 
Q 2300 1400 2300 1650 
L 2300 2875 
Q 2325 3225 2200 3525 
L 2275 3575 
L 2500 3225 
L 3750 3400 
L 3900 3600 
L 4200 3325 
L 4025 3150 
L 3975 1650 
L 4150 1450 
z
M 5000 4925 
L 5325 4675 
L 5175 4475 
L 5175 450 
Q 5175 -325 4975 -650 
Q 4700 -225 3975 500 
L 4050 575 
L 4875 -75 
Q 4925 -75 4950 425 
L 4950 4475 
Q 3075 4275 2925 4250 
L 2550 4475 
Q 2925 4450 4875 4700 
L 5000 4925 
z
M 3775 3150 
L 2525 3000 
L 2525 2375 
Q 3225 2475 3300 2550 
L 3550 2300 
Q 3300 2300 2525 2175 
L 2525 1525 
L 3725 1650 
L 3775 3150 
z
M 1400 -225 
Q 1425 -675 1325 -550 
L 1075 -175 
Q 1175 -25 1175 350 
L 1175 3475 
Q 1175 3900 1025 4225 
L 1100 4275 
L 1475 3875 
Q 1400 3725 1400 3375 
L 1400 -225 
z
M 1425 5175 
Q 1950 4725 2200 4525 
Q 2125 4275 2050 4075 
Q 1875 4425 1350 5100 
L 1425 5175 
z
" transform="scale(0.015625)"/>
       <path id="FangSong-ff08" d="M 5425 -150 
Q 5375 -200 4950 87 
Q 4525 375 4137 850 
Q 3750 1325 3687 2100 
Q 3625 2875 4000 3487 
Q 4375 4100 4887 4462 
Q 5400 4825 5412 4762 
Q 5425 4700 5075 4412 
Q 4725 4125 4387 3600 
Q 4050 3075 4050 2250 
Q 4050 1425 4375 962 
Q 4700 500 5087 200 
Q 5475 -100 5425 -150 
z
" transform="scale(0.015625)"/>
       <path id="FangSong-5355" d="M 3100 1100 
Q 1000 925 825 900 
L 550 1150 
Q 925 1125 3100 1300 
L 3125 2000 
L 2025 1900 
Q 2050 1650 1950 1650 
L 1700 2000 
Q 1800 2075 1775 3012 
Q 1750 3950 1675 4050 
L 1775 4100 
L 1950 3725 
L 3575 3900 
Q 3800 4300 3962 4700 
Q 4125 5100 4000 5200 
L 4075 5250 
L 4375 4800 
Q 4325 4850 4175 4600 
Q 4000 4350 3725 3900 
L 4625 4025 
L 4800 4250 
L 5100 3975 
L 4925 3800 
L 4725 2400 
L 4975 2175 
L 3350 2025 
L 3325 1325 
Q 5550 1500 5625 1575 
L 5950 1275 
Q 5425 1300 3325 1125 
L 3300 -400 
Q 3300 -750 3200 -625 
L 2975 -175 
Q 3100 -75 3075 100 
L 3100 1100 
z
M 4700 3800 
L 3350 3650 
L 3350 3050 
Q 4075 3125 4175 3175 
L 4425 2925 
Q 4000 2925 3350 2825 
L 3350 2250 
L 4500 2350 
L 4700 3800 
z
M 2000 2125 
L 3125 2225 
L 3125 2800 
Q 2500 2750 2350 2700 
L 2075 2950 
Q 2425 2950 3125 3025 
L 3125 3625 
L 1975 3500 
L 2000 2125 
z
M 2900 4175 
Q 2800 4025 2700 3825 
Q 2425 4425 2100 4925 
L 2150 4975 
Q 2625 4450 2900 4175 
z
" transform="scale(0.015625)"/>
       <path id="FangSong-4f4d" d="M 1625 3325 
Q 1250 2725 500 2000 
L 450 2125 
Q 1225 2975 1737 3900 
Q 2250 4825 2200 5100 
L 2300 5125 
L 2550 4625 
Q 2450 4625 2300 4387 
Q 2150 4150 1850 3650 
L 1825 -350 
Q 1825 -725 1725 -550 
L 1475 -100 
Q 1600 0 1600 325 
L 1625 3325 
z
M 4925 2725 
Q 4775 2700 4600 1962 
Q 4425 1225 4175 375 
Q 5500 475 5675 550 
L 6000 250 
Q 5475 250 4062 150 
Q 2650 50 2450 0 
L 2150 250 
Q 2650 250 4000 350 
Q 4275 1350 4425 2112 
Q 4575 2875 4425 3125 
L 4500 3175 
L 4925 2725 
z
M 2375 3350 
Q 2900 3375 4050 3500 
Q 5200 3625 5300 3700 
L 5625 3425 
Q 5250 3400 4062 3287 
Q 2875 3175 2675 3100 
L 2375 3350 
z
M 3575 1375 
Q 3500 1125 3325 925 
Q 3200 1625 2825 2750 
L 2925 2800 
Q 3400 1750 3575 1375 
z
M 3950 3800 
Q 3825 4250 3400 5100 
L 3500 5150 
Q 3950 4575 4150 4275 
Q 4075 4050 3950 3800 
z
" transform="scale(0.015625)"/>
       <path id="FangSong-3a" d="M 1600 275 
Q 1600 125 1500 25 
Q 1400 -75 1250 -75 
Q 1100 -75 1000 25 
Q 900 125 900 275 
Q 900 425 1000 525 
Q 1100 625 1250 625 
Q 1400 625 1500 525 
Q 1600 425 1600 275 
z
M 1600 2025 
Q 1600 1875 1500 1775 
Q 1400 1675 1250 1675 
Q 1100 1675 1000 1775 
Q 900 1875 900 2025 
Q 900 2175 1000 2275 
Q 1100 2375 1250 2375 
Q 1400 2375 1500 2275 
Q 1600 2175 1600 2025 
z
" transform="scale(0.015625)"/>
       <path id="FangSong-5c0f" d="M 3250 4225 
Q 3250 4825 3075 5025 
L 3150 5125 
L 3625 4675 
Q 3425 4600 3475 4225 
L 3475 300 
Q 3475 -275 3250 -600 
Q 2900 -125 2225 450 
L 2300 525 
L 3150 0 
Q 3225 100 3250 675 
L 3250 4225 
z
M 2125 3550 
L 2425 3025 
Q 2350 3075 1875 2300 
Q 1400 1525 500 600 
L 425 700 
Q 1300 1725 1725 2500 
Q 2150 3275 2050 3500 
L 2125 3550 
z
M 5700 1125 
Q 5350 1725 3950 3400 
L 4050 3475 
Q 5225 2250 5750 1775 
Q 5750 1425 5700 1125 
z
" transform="scale(0.015625)"/>
       <path id="FangSong-ff09" d="M 1437 62 
Q 950 -225 937 -162 
Q 925 -100 1287 162 
Q 1650 425 2037 1012 
Q 2425 1600 2375 2375 
Q 2325 3150 1987 3662 
Q 1650 4175 1287 4475 
Q 925 4775 937 4837 
Q 950 4900 1412 4587 
Q 1875 4275 2325 3662 
Q 2775 3050 2762 2225 
Q 2750 1400 2337 875 
Q 1925 350 1437 62 
z
" transform="scale(0.015625)"/>
      </defs>
      <use xlink:href="#FangSong-4e00"/>
      <use xlink:href="#FangSong-5929" x="100"/>
      <use xlink:href="#FangSong-4e2d" x="200"/>
      <use xlink:href="#FangSong-7684" x="300"/>
      <use xlink:href="#FangSong-65f6" x="400"/>
      <use xlink:href="#FangSong-95f4" x="500"/>
      <use xlink:href="#FangSong-ff08" x="600"/>
      <use xlink:href="#FangSong-5355" x="700"/>
      <use xlink:href="#FangSong-4f4d" x="800"/>
      <use xlink:href="#FangSong-3a" x="900"/>
      <use xlink:href="#FangSong-5c0f" x="950"/>
      <use xlink:href="#FangSong-65f6" x="1050"/>
      <use xlink:href="#FangSong-ff09" x="1150"/>
     </g>
    </g>
   </g>
   <g id="matplotlib.axis_2">
    <g id="ytick_1">
     <g id="line2d_6">
      <defs>
       <path id="m687a33884b" d="M 0 0 
L -3.5 0 
" style="stroke: #000000; stroke-width: 0.8"/>
      </defs>
      <g>
       <use xlink:href="#m687a33884b" x="57.6" y="295.488" style="stroke: #000000; stroke-width: 0.8"/>
      </g>
     </g>
     <g id="text_7">
      <!-- 0 -->
      <g transform="translate(45.6 298.984094) scale(0.1 -0.1)">
       <use xlink:href="#FangSong-30"/>
      </g>
     </g>
    </g>
    <g id="ytick_2">
     <g id="line2d_7">
      <g>
       <use xlink:href="#m687a33884b" x="57.6" y="244.771019" style="stroke: #000000; stroke-width: 0.8"/>
      </g>
     </g>
     <g id="text_8">
      <!-- 100 -->
      <g transform="translate(35.6 248.267113) scale(0.1 -0.1)">
       <use xlink:href="#FangSong-31"/>
       <use xlink:href="#FangSong-30" x="50"/>
       <use xlink:href="#FangSong-30" x="100"/>
      </g>
     </g>
    </g>
    <g id="ytick_3">
     <g id="line2d_8">
      <g>
       <use xlink:href="#m687a33884b" x="57.6" y="194.054038" style="stroke: #000000; stroke-width: 0.8"/>
      </g>
     </g>
     <g id="text_9">
      <!-- 200 -->
      <g transform="translate(35.6 197.550131) scale(0.1 -0.1)">
       <use xlink:href="#FangSong-32"/>
       <use xlink:href="#FangSong-30" x="50"/>
       <use xlink:href="#FangSong-30" x="100"/>
      </g>
     </g>
    </g>
    <g id="ytick_4">
     <g id="line2d_9">
      <g>
       <use xlink:href="#m687a33884b" x="57.6" y="143.337057" style="stroke: #000000; stroke-width: 0.8"/>
      </g>
     </g>
     <g id="text_10">
      <!-- 300 -->
      <g transform="translate(35.6 146.83315) scale(0.1 -0.1)">
       <defs>
        <path id="FangSong-33" d="M 2775 1150 
Q 2775 675 2425 312 
Q 2075 -50 1450 -50 
Q 1000 -50 675 200 
Q 350 450 350 775 
Q 350 925 450 1037 
Q 550 1150 650 1150 
Q 800 1150 862 1037 
Q 925 925 925 850 
Q 925 725 875 637 
Q 825 550 825 475 
Q 825 325 1012 225 
Q 1200 125 1425 125 
Q 1875 125 2100 387 
Q 2325 650 2325 1200 
Q 2325 1650 2087 1925 
Q 1850 2200 1200 2200 
L 1200 2375 
Q 1700 2375 1937 2612 
Q 2175 2850 2175 3275 
Q 2175 3625 1987 3887 
Q 1800 4150 1400 4150 
Q 1225 4150 1025 4062 
Q 825 3975 825 3775 
Q 825 3575 875 3525 
Q 925 3475 925 3400 
Q 925 3275 875 3200 
Q 825 3125 700 3125 
Q 600 3125 512 3200 
Q 425 3275 425 3475 
Q 425 3850 750 4087 
Q 1075 4325 1500 4325 
Q 2000 4325 2300 4012 
Q 2600 3700 2600 3350 
Q 2600 2975 2412 2712 
Q 2225 2450 1825 2325 
Q 2375 2125 2575 1800 
Q 2775 1475 2775 1150 
z
" transform="scale(0.015625)"/>
       </defs>
       <use xlink:href="#FangSong-33"/>
       <use xlink:href="#FangSong-30" x="50"/>
       <use xlink:href="#FangSong-30" x="100"/>
      </g>
     </g>
    </g>
    <g id="ytick_5">
     <g id="line2d_10">
      <g>
       <use xlink:href="#m687a33884b" x="57.6" y="92.620075" style="stroke: #000000; stroke-width: 0.8"/>
      </g>
     </g>
     <g id="text_11">
      <!-- 400 -->
      <g transform="translate(35.6 96.116169) scale(0.1 -0.1)">
       <defs>
        <path id="FangSong-34" d="M 2275 475 
Q 2275 300 2375 225 
Q 2475 150 2650 150 
L 2875 150 
L 2875 0 
L 1225 0 
L 1225 150 
L 1500 150 
Q 1700 150 1787 225 
Q 1875 300 1875 475 
L 1875 1300 
L 200 1300 
L 200 1425 
L 2025 4325 
L 2275 4325 
L 2275 1450 
L 2950 1450 
L 2950 1300 
L 2275 1300 
L 2275 475 
z
M 1850 3700 
L 425 1450 
L 1875 1450 
L 1875 3700 
L 1850 3700 
z
" transform="scale(0.015625)"/>
       </defs>
       <use xlink:href="#FangSong-34"/>
       <use xlink:href="#FangSong-30" x="50"/>
       <use xlink:href="#FangSong-30" x="100"/>
      </g>
     </g>
    </g>
    <g id="ytick_6">
     <g id="line2d_11">
      <g>
       <use xlink:href="#m687a33884b" x="57.6" y="41.903094" style="stroke: #000000; stroke-width: 0.8"/>
      </g>
     </g>
     <g id="text_12">
      <!-- 500 -->
      <g transform="translate(35.6 45.399188) scale(0.1 -0.1)">
       <use xlink:href="#FangSong-35"/>
       <use xlink:href="#FangSong-30" x="50"/>
       <use xlink:href="#FangSong-30" x="100"/>
      </g>
     </g>
    </g>
    <g id="text_13">
     <!-- 提交次数 -->
     <g transform="translate(30.154688 194.528) rotate(-90) scale(0.1 -0.1)">
      <defs>
       <path id="FangSong-63d0" d="M 4975 3150 
L 3225 2925 
Q 3250 2650 3150 2675 
L 2925 3000 
Q 3025 3075 3000 3300 
L 3000 4275 
Q 3000 4725 2900 5050 
L 2975 5100 
L 3175 4700 
L 4575 4875 
L 4725 5125 
L 5000 4850 
L 4825 4675 
L 4750 3375 
L 4975 3150 
z
M 3700 525 
L 3750 2175 
Q 2625 2050 2500 2000 
L 2150 2250 
Q 2550 2250 3837 2400 
Q 5125 2550 5275 2625 
L 5600 2350 
Q 5175 2350 3975 2200 
L 3950 1525 
Q 4825 1625 4950 1675 
L 5200 1425 
Q 4850 1425 3950 1275 
L 3925 425 
Q 4400 150 4625 25 
Q 4850 -100 5050 -162 
Q 5250 -225 5925 -175 
L 5925 -300 
L 4875 -525 
Q 4900 -400 4375 -87 
Q 3850 225 2850 825 
Q 2550 75 1925 -575 
L 1850 -500 
Q 2300 100 2450 425 
Q 2600 750 2725 1162 
Q 2850 1575 2775 1775 
L 2825 1825 
L 3175 1425 
Q 3100 1425 3050 1325 
Q 3000 1225 2925 1000 
L 3700 525 
z
M 625 3425 
Q 975 3400 1625 3525 
L 1650 4325 
Q 1675 5050 1525 5125 
L 1575 5200 
L 2025 4875 
Q 1900 4850 1875 4425 
L 1850 3575 
Q 2500 3650 2525 3700 
L 2750 3400 
Q 2550 3425 1850 3325 
L 1825 2425 
L 2650 2850 
L 2700 2750 
L 1825 2225 
L 1800 400 
Q 1800 -200 1600 -575 
Q 1375 -200 775 400 
L 825 475 
L 1500 25 
Q 1575 250 1575 625 
L 1600 2075 
Q 900 1675 725 1550 
L 475 1800 
Q 750 1875 1600 2325 
L 1625 3275 
Q 975 3200 950 3150 
L 625 3425 
z
M 4600 4650 
L 3225 4475 
L 3225 3925 
Q 4025 4025 4225 4100 
L 4500 3850 
Q 4150 3850 3225 3700 
L 3225 3175 
L 4525 3325 
L 4600 4650 
z
" transform="scale(0.015625)"/>
       <path id="FangSong-4ea4" d="M 3275 1200 
Q 3800 650 4137 362 
Q 4475 75 4700 -62 
Q 4925 -200 5850 -200 
L 5850 -325 
L 4575 -475 
Q 4500 -300 3150 1050 
Q 2100 -125 600 -650 
L 575 -550 
Q 1975 50 2950 1225 
Q 2775 1475 2475 1787 
Q 2175 2100 2000 2075 
L 2000 2200 
L 2400 2250 
Q 2400 2125 2575 1925 
L 3125 1400 
Q 3800 2450 3675 2850 
L 3750 2875 
L 4075 2350 
Q 3975 2375 3812 2062 
Q 3650 1750 3275 1200 
z
M 5600 3875 
Q 5075 3850 3262 3662 
Q 1450 3475 1150 3375 
L 775 3625 
Q 1200 3650 3100 3850 
Q 5000 4050 5175 4125 
L 5600 3875 
z
M 700 1550 
Q 1250 1975 1787 2537 
Q 2325 3100 2325 3425 
L 2400 3450 
L 2650 3000 
Q 2525 2950 2012 2450 
Q 1500 1950 775 1450 
L 700 1550 
z
M 3750 3450 
Q 4725 2875 5150 2650 
Q 5175 2375 5150 2100 
Q 4700 2600 3675 3350 
L 3750 3450 
z
M 3350 4050 
Q 3200 4400 2575 5200 
L 2650 5275 
Q 3250 4750 3525 4525 
Q 3475 4225 3350 4050 
z
" transform="scale(0.015625)"/>
       <path id="FangSong-6b21" d="M 4850 -475 
Q 4900 -400 4550 162 
Q 4200 725 3525 1775 
Q 3050 75 1500 -675 
L 1450 -550 
Q 2000 -250 2387 175 
Q 2775 600 3000 1075 
Q 3225 1550 3337 2150 
Q 3450 2750 3325 2875 
L 3400 2925 
L 3775 2550 
Q 3700 2550 3662 2412 
Q 3625 2275 3575 2050 
Q 4300 900 4550 512 
Q 4800 125 5062 -62 
Q 5325 -250 5975 -225 
L 5975 -375 
L 4850 -475 
z
M 5125 3775 
L 5500 3475 
Q 5350 3425 5137 3150 
Q 4925 2875 4525 2325 
L 4425 2375 
L 4925 3250 
L 3075 3025 
Q 2725 2400 2275 1875 
L 2200 1950 
Q 2875 3000 3225 4000 
Q 3575 5000 3425 5175 
L 3500 5225 
L 3850 4775 
Q 3750 4825 3625 4425 
Q 3500 4025 3175 3275 
L 4950 3475 
L 5125 3775 
z
M 2275 3250 
L 2400 3225 
Q 1650 1400 1225 375 
Q 925 825 425 1275 
L 475 1400 
L 1150 925 
L 2275 3250 
z
M 1925 3550 
Q 1925 3325 1850 3075 
Q 1450 3650 950 4225 
L 1000 4300 
Q 1550 3850 1925 3550 
z
" transform="scale(0.015625)"/>
       <path id="FangSong-6570" d="M 4950 2750 
Q 4875 2675 4737 2262 
Q 4600 1850 4375 1300 
Q 4875 300 5087 37 
Q 5300 -225 6000 -225 
L 6000 -350 
L 4925 -425 
Q 4950 -325 4787 37 
Q 4625 400 4250 1100 
Q 3600 50 2575 -675 
L 2500 -575 
Q 3400 100 4100 1300 
Q 3700 2150 3550 2350 
Q 3400 2050 3250 1825 
L 3150 1875 
Q 3400 2425 3575 2937 
Q 3750 3450 3950 4225 
Q 4150 5000 4025 5100 
L 4100 5150 
L 4425 4800 
Q 4350 4750 4287 4500 
Q 4225 4250 3900 3200 
Q 5325 3375 5475 3475 
L 5775 3200 
Q 5425 3175 4700 3075 
L 4950 2750 
z
M 2975 450 
Q 3000 225 3000 25 
Q 2700 200 2275 400 
Q 1650 -250 550 -625 
L 500 -525 
Q 1475 -75 2025 475 
Q 1675 575 1275 700 
L 1600 1375 
Q 1000 1300 825 1250 
L 525 1525 
Q 825 1525 1700 1625 
Q 1800 1875 1825 2037 
Q 1850 2200 1825 2350 
L 1875 2375 
L 2150 2000 
Q 2075 1975 1950 1650 
L 2725 1725 
Q 2775 1850 2750 2075 
L 2825 2100 
L 3125 1700 
Q 3050 1700 2900 1387 
Q 2750 1075 2450 575 
Q 2650 525 2975 450 
z
M 2350 3600 
L 2650 3625 
Q 2900 4150 2987 4437 
Q 3075 4725 3050 4950 
L 3125 5000 
L 3400 4575 
Q 3325 4550 3212 4337 
Q 3100 4125 2800 3625 
Q 3275 3725 3300 3750 
L 3525 3475 
Q 3250 3475 2350 3375 
L 2350 3225 
Q 2800 3025 3225 2850 
Q 3225 2650 3200 2400 
Q 2850 2750 2350 3075 
L 2350 2375 
Q 2350 2050 2250 2200 
L 2025 2500 
Q 2150 2625 2125 2850 
L 2125 3200 
Q 1350 2300 475 1775 
L 400 1875 
Q 1200 2425 1900 3325 
Q 1050 3225 1000 3175 
L 675 3475 
Q 1050 3450 2125 3575 
L 2125 4475 
Q 2125 4975 2000 5175 
L 2075 5225 
L 2450 4925 
Q 2350 4850 2350 4400 
L 2350 3600 
z
M 3800 2450 
Q 3825 2300 3950 2025 
L 4200 1550 
Q 4325 1800 4487 2375 
Q 4650 2950 4600 3050 
L 3800 2950 
Q 3700 2700 3600 2475 
L 3800 2450 
z
M 2175 650 
Q 2500 1075 2675 1525 
L 1875 1400 
L 1575 800 
L 2175 650 
z
M 1625 3650 
Q 1475 4000 1100 4525 
L 1175 4600 
Q 1475 4350 1825 4025 
Q 1725 3825 1625 3650 
z
" transform="scale(0.015625)"/>
      </defs>
      <use xlink:href="#FangSong-63d0"/>
      <use xlink:href="#FangSong-4ea4" x="100"/>
      <use xlink:href="#FangSong-6b21" x="200"/>
      <use xlink:href="#FangSong-6570" x="300"/>
     </g>
    </g>
   </g>
   <g id="line2d_12">
    <path d="M 73.832727 250.349887 
L 87.948142 284.837434 
L 102.063557 292.444981 
L 116.178972 295.488 
L 130.294387 295.488 
L 144.409802 295.488 
L 158.525217 294.98083 
L 172.640632 295.488 
L 186.756047 270.636679 
L 200.871462 174.274415 
L 214.986877 79.43366 
L 229.102292 71.318943 
L 243.217708 209.269132 
L 257.333123 193.546868 
L 271.448538 139.279698 
L 285.563953 136.236679 
L 299.679368 94.141585 
L 313.794783 129.643472 
L 327.910198 153.987623 
L 342.025613 107.83517 
L 356.141028 53.568 
L 370.256443 85.519698 
L 384.371858 131.672151 
L 398.487273 178.331774 
" clip-path="url(#pd91fe4c724)" style="fill: none; stroke: #1f77b4; stroke-width: 1.5; stroke-linecap: square"/>
   </g>
   <g id="patch_3">
    <path d="M 57.6 307.584 
L 57.6 41.472 
" style="fill: none; stroke: #000000; stroke-width: 0.8; stroke-linejoin: miter; stroke-linecap: square"/>
   </g>
   <g id="patch_4">
    <path d="M 414.72 307.584 
L 414.72 41.472 
" style="fill: none; stroke: #000000; stroke-width: 0.8; stroke-linejoin: miter; stroke-linecap: square"/>
   </g>
   <g id="patch_5">
    <path d="M 57.6 307.584 
L 414.72 307.584 
" style="fill: none; stroke: #000000; stroke-width: 0.8; stroke-linejoin: miter; stroke-linecap: square"/>
   </g>
   <g id="patch_6">
    <path d="M 57.6 41.472 
L 414.72 41.472 
" style="fill: none; stroke: #000000; stroke-width: 0.8; stroke-linejoin: miter; stroke-linecap: square"/>
   </g>
   <g id="text_14">
    <!-- 一天中的时间与提交次数的折线图 -->
    <g transform="translate(146.16 35.472) scale(0.12 -0.12)">
     <defs>
      <path id="FangSong-4e0e" d="M 2100 2025 
L 1850 2375 
L 2050 2500 
L 2350 4175 
Q 2500 4950 2325 5125 
L 2375 5175 
L 2800 4775 
Q 2700 4825 2600 4300 
L 2500 3775 
Q 5100 4000 5225 4100 
L 5625 3800 
Q 5150 3825 2475 3550 
L 2275 2450 
L 4900 2650 
L 5100 2925 
L 5450 2625 
L 5225 2425 
Q 4975 1250 4750 525 
Q 4525 -200 4250 -600 
Q 3925 -125 3275 450 
L 3325 525 
L 4225 -125 
Q 4600 600 4975 2425 
L 2275 2225 
L 2100 2025 
z
M 4325 1300 
Q 3900 1300 2512 1162 
Q 1125 1025 950 975 
L 675 1250 
Q 1025 1225 2325 1350 
Q 3625 1475 3950 1550 
L 4325 1300 
z
" transform="scale(0.015625)"/>
      <path id="FangSong-6298" d="M 4625 -275 
Q 4650 -750 4550 -650 
L 4275 -175 
Q 4425 -75 4400 300 
L 4425 2775 
L 3300 2650 
Q 3275 1475 3000 762 
Q 2725 50 2100 -550 
L 2025 -450 
Q 2500 50 2750 662 
Q 3000 1275 3050 2200 
Q 3100 3125 3075 3775 
Q 3050 4425 2975 4575 
L 3075 4650 
L 3275 4100 
Q 4125 4400 4612 4675 
Q 5100 4950 5075 5050 
L 5150 5075 
L 5475 4800 
Q 5150 4675 4712 4475 
Q 4275 4275 3325 3925 
L 3300 2875 
Q 5700 3100 5675 3200 
L 6000 2900 
Q 5675 2900 4650 2800 
L 4625 -275 
z
M 2875 2650 
L 1975 2150 
L 1975 350 
Q 1975 -125 1825 -500 
Q 1525 -75 850 525 
L 900 600 
L 1700 100 
Q 1750 100 1750 625 
L 1750 2050 
Q 875 1550 850 1500 
L 400 1700 
Q 700 1750 1750 2250 
L 1750 3225 
Q 925 3075 825 3025 
L 525 3275 
Q 900 3325 1750 3475 
L 1750 4500 
Q 1775 5025 1650 5225 
L 1700 5275 
L 2100 4900 
Q 1950 4825 1975 4475 
L 1975 3525 
Q 2625 3650 2750 3700 
L 3000 3450 
Q 2750 3425 1975 3275 
L 1975 2350 
L 2850 2775 
L 2875 2650 
z
" transform="scale(0.015625)"/>
      <path id="FangSong-7ebf" d="M 4100 1125 
Q 4450 1450 4637 1700 
Q 4825 1950 4800 2150 
L 4875 2175 
L 5050 1625 
Q 4950 1650 4775 1475 
Q 4600 1300 4200 875 
Q 4800 0 5425 -200 
L 5475 800 
L 5575 800 
Q 5650 -350 5725 -625 
Q 4700 -350 4025 725 
Q 3425 150 2325 -350 
L 2275 -250 
Q 3150 175 3925 950 
Q 3750 1350 3575 2050 
Q 2975 1875 2900 1825 
L 2550 1975 
Q 2875 2050 3550 2250 
Q 3500 2575 3425 3025 
Q 3075 2950 2950 2875 
L 2650 3025 
Q 2850 3075 3425 3225 
Q 3325 4025 3300 4462 
Q 3275 4900 3125 5125 
L 3200 5200 
L 3650 4825 
Q 3550 4650 3562 4325 
Q 3575 4000 3625 3325 
Q 4550 3600 4600 3675 
L 4950 3475 
Q 4600 3400 3650 3100 
Q 3700 2600 3775 2300 
Q 5000 2725 5050 2800 
L 5400 2600 
Q 5225 2575 3800 2125 
Q 3925 1500 4100 1125 
z
M 2525 1725 
Q 1375 1350 1175 1225 
L 950 1500 
L 1225 1575 
L 1950 2725 
Q 1175 2575 975 2450 
L 775 2750 
L 1050 2875 
Q 1550 3800 1737 4250 
Q 1925 4700 1850 4900 
L 1925 4950 
L 2225 4475 
Q 2125 4525 1812 3937 
Q 1500 3350 1225 2800 
L 2075 2925 
Q 2450 3500 2375 3750 
L 2450 3800 
L 2700 3325 
Q 2600 3325 2337 2925 
Q 2075 2525 1475 1625 
L 2500 1825 
L 2525 1725 
z
M 2825 825 
Q 1100 50 1000 -25 
L 625 200 
Q 1000 250 2775 950 
L 2825 825 
z
M 4700 3900 
Q 4450 4175 3925 4650 
L 3975 4750 
Q 4525 4475 4700 4400 
L 4700 3900 
z
" transform="scale(0.015625)"/>
      <path id="FangSong-56fe" d="M 5375 5050 
L 5675 4775 
L 5450 4550 
Q 5300 25 5262 -275 
Q 5225 -575 5137 -562 
Q 5050 -550 4950 -50 
L 1425 -200 
Q 1450 -675 1350 -675 
L 1075 -200 
Q 1150 -25 1150 175 
L 1125 4250 
Q 1125 4725 1050 5050 
L 1150 5100 
L 1400 4600 
L 5175 4850 
L 5375 5050 
z
M 1400 0 
Q 4100 150 4650 225 
L 4975 25 
Q 5050 200 5075 1825 
L 4175 1675 
Q 4250 1725 3225 2575 
Q 2475 1875 1475 1450 
L 1425 1550 
Q 2275 2000 3075 2725 
Q 2900 2850 2525 3225 
Q 2325 2925 1850 2450 
L 1750 2525 
Q 2500 3400 2950 4450 
L 1375 4350 
L 1400 0 
z
M 3925 3950 
L 4200 3675 
L 4000 3550 
Q 3675 3000 3375 2725 
Q 4000 2175 4250 2050 
Q 4500 1925 5100 1950 
L 5225 4600 
L 3050 4450 
L 3250 4175 
Q 3150 4150 3062 4012 
Q 2975 3875 2800 3625 
L 3750 3775 
L 3925 3950 
z
M 3625 775 
Q 3650 500 3625 250 
Q 3200 700 2500 1275 
L 2600 1375 
Q 3250 975 3625 775 
z
M 2800 3275 
Q 2800 3200 2925 3100 
Q 3050 3000 3200 2850 
Q 3450 3125 3700 3550 
Q 3050 3400 2875 3350 
L 2750 3525 
L 2600 3275 
L 2800 3275 
z
M 2775 2100 
Q 3300 1800 3625 1675 
Q 3650 1425 3625 1225 
Q 3300 1500 2700 1975 
L 2775 2100 
z
" transform="scale(0.015625)"/>
     </defs>
     <use xlink:href="#FangSong-4e00"/>
     <use xlink:href="#FangSong-5929" x="100"/>
     <use xlink:href="#FangSong-4e2d" x="200"/>
     <use xlink:href="#FangSong-7684" x="300"/>
     <use xlink:href="#FangSong-65f6" x="400"/>
     <use xlink:href="#FangSong-95f4" x="500"/>
     <use xlink:href="#FangSong-4e0e" x="600"/>
     <use xlink:href="#FangSong-63d0" x="700"/>
     <use xlink:href="#FangSong-4ea4" x="800"/>
     <use xlink:href="#FangSong-6b21" x="900"/>
     <use xlink:href="#FangSong-6570" x="1000"/>
     <use xlink:href="#FangSong-7684" x="1100"/>
     <use xlink:href="#FangSong-6298" x="1200"/>
     <use xlink:href="#FangSong-7ebf" x="1300"/>
     <use xlink:href="#FangSong-56fe" x="1400"/>
    </g>
   </g>
  </g>
 </g>
 <defs>
  <clipPath id="pd91fe4c724">
   <rect x="57.6" y="41.472" width="357.12" height="266.112"/>
  </clipPath>
 </defs>
</svg>
