<?xml version="1.0" encoding="utf-8" standalone="no"?>
<!DOCTYPE svg PUBLIC "-//W3C//DTD SVG 1.1//EN"
  "http://www.w3.org/Graphics/SVG/1.1/DTD/svg11.dtd">
<svg xmlns:xlink="http://www.w3.org/1999/xlink" width="460.8pt" height="345.6pt" viewBox="0 0 460.8 345.6" xmlns="http://www.w3.org/2000/svg" version="1.1">
 <metadata>
  <rdf:RDF xmlns:dc="http://purl.org/dc/elements/1.1/" xmlns:cc="http://creativecommons.org/ns#" xmlns:rdf="http://www.w3.org/1999/02/22-rdf-syntax-ns#">
   <cc:Work>
    <dc:type rdf:resource="http://purl.org/dc/dcmitype/StillImage"/>
    <dc:date>2023-02-02T10:42:31.122244</dc:date>
    <dc:format>image/svg+xml</dc:format>
    <dc:creator>
     <cc:Agent>
      <dc:title>Matplotlib v3.6.1, https://matplotlib.org/</dc:title>
     </cc:Agent>
    </dc:creator>
   </cc:Work>
  </rdf:RDF>
 </metadata>
 <defs>
  <style type="text/css">*{stroke-linejoin: round; stroke-linecap: butt}</style>
 </defs>
 <g id="figure_1">
  <g id="patch_1">
   <path d="M 0 345.6 
L 460.8 345.6 
L 460.8 0 
L 0 0 
z
" style="fill: #ffffff"/>
  </g>
  <g id="axes_1">
   <g id="patch_2">
    <path d="M 57.6 307.584 
L 414.72 307.584 
L 414.72 41.472 
L 57.6 41.472 
z
" style="fill: #ffffff"/>
   </g>
   <g id="matplotlib.axis_1">
    <g id="xtick_1">
     <g id="line2d_1">
      <defs>
       <path id="m38dfd04666" d="M 0 0 
L 0 3.5 
" style="stroke: #000000; stroke-width: 0.8"/>
      </defs>
      <g>
       <use xlink:href="#m38dfd04666" x="73.832727" y="307.584" style="stroke: #000000; stroke-width: 0.8"/>
      </g>
     </g>
     <g id="text_1">
      <!-- 0 -->
      <g transform="translate(71.332727 321.576187) scale(0.1 -0.1)">
       <defs>
        <path id="FangSong-30" d="M 1575 4125 
Q 1225 4125 987 3587 
Q 750 3050 750 2150 
Q 750 1200 987 675 
Q 1225 150 1575 150 
Q 1950 150 2162 675 
Q 2375 1200 2375 2150 
Q 2375 3050 2175 3587 
Q 1975 4125 1575 4125 
z
M 1575 -50 
Q 1025 -50 650 525 
Q 275 1100 275 2150 
Q 275 3125 637 3725 
Q 1000 4325 1575 4325 
Q 2125 4325 2487 3750 
Q 2850 3175 2850 2150 
Q 2850 1125 2487 537 
Q 2125 -50 1575 -50 
z
" transform="scale(0.015625)"/>
       </defs>
       <use xlink:href="#FangSong-30"/>
      </g>
     </g>
    </g>
    <g id="xtick_2">
     <g id="line2d_2">
      <g>
       <use xlink:href="#m38dfd04666" x="124.166765" y="307.584" style="stroke: #000000; stroke-width: 0.8"/>
      </g>
     </g>
     <g id="text_2">
      <!-- 20 -->
      <g transform="translate(119.166765 321.576187) scale(0.1 -0.1)">
       <defs>
        <path id="FangSong-32" d="M 2300 3225 
Q 2300 3675 2100 3912 
Q 1900 4150 1500 4150 
Q 1200 4150 987 3987 
Q 775 3825 775 3575 
Q 775 3425 862 3325 
Q 950 3225 950 3125 
Q 950 3000 887 2937 
Q 825 2875 700 2875 
Q 550 2875 462 2962 
Q 375 3050 375 3250 
Q 375 3775 750 4050 
Q 1125 4325 1550 4325 
Q 2150 4325 2437 4025 
Q 2725 3725 2725 3275 
Q 2725 2975 2587 2675 
Q 2450 2375 2150 2100 
Q 1425 1400 1037 962 
Q 650 525 575 375 
L 2050 375 
Q 2275 375 2425 550 
Q 2575 725 2625 1075 
L 2775 1075 
L 2625 0 
L 300 0 
L 300 325 
Q 425 550 712 900 
Q 1000 1250 1475 1725 
Q 1900 2150 2100 2525 
Q 2300 2900 2300 3225 
z
" transform="scale(0.015625)"/>
       </defs>
       <use xlink:href="#FangSong-32"/>
       <use xlink:href="#FangSong-30" x="50"/>
      </g>
     </g>
    </g>
    <g id="xtick_3">
     <g id="line2d_3">
      <g>
       <use xlink:href="#m38dfd04666" x="174.500803" y="307.584" style="stroke: #000000; stroke-width: 0.8"/>
      </g>
     </g>
     <g id="text_3">
      <!-- 40 -->
      <g transform="translate(169.500803 321.576187) scale(0.1 -0.1)">
       <defs>
        <path id="FangSong-34" d="M 2275 475 
Q 2275 300 2375 225 
Q 2475 150 2650 150 
L 2875 150 
L 2875 0 
L 1225 0 
L 1225 150 
L 1500 150 
Q 1700 150 1787 225 
Q 1875 300 1875 475 
L 1875 1300 
L 200 1300 
L 200 1425 
L 2025 4325 
L 2275 4325 
L 2275 1450 
L 2950 1450 
L 2950 1300 
L 2275 1300 
L 2275 475 
z
M 1850 3700 
L 425 1450 
L 1875 1450 
L 1875 3700 
L 1850 3700 
z
" transform="scale(0.015625)"/>
       </defs>
       <use xlink:href="#FangSong-34"/>
       <use xlink:href="#FangSong-30" x="50"/>
      </g>
     </g>
    </g>
    <g id="xtick_4">
     <g id="line2d_4">
      <g>
       <use xlink:href="#m38dfd04666" x="224.834841" y="307.584" style="stroke: #000000; stroke-width: 0.8"/>
      </g>
     </g>
     <g id="text_4">
      <!-- 60 -->
      <g transform="translate(219.834841 321.576187) scale(0.1 -0.1)">
       <defs>
        <path id="FangSong-36" d="M 750 1700 
Q 750 950 1012 537 
Q 1275 125 1650 125 
Q 2025 125 2225 400 
Q 2425 675 2425 1425 
Q 2425 1925 2212 2200 
Q 2000 2475 1700 2475 
Q 1425 2475 1187 2312 
Q 950 2150 750 1700 
z
M 1725 2725 
Q 2325 2725 2587 2325 
Q 2850 1925 2850 1425 
Q 2850 675 2487 312 
Q 2125 -50 1650 -50 
Q 975 -50 625 462 
Q 275 975 275 1950 
Q 275 3100 700 3712 
Q 1125 4325 1850 4325 
Q 2200 4325 2412 4125 
Q 2625 3925 2625 3775 
Q 2625 3625 2562 3550 
Q 2500 3475 2350 3475 
Q 2225 3475 2162 3537 
Q 2100 3600 2100 3725 
Q 2100 3775 2112 3825 
Q 2125 3875 2125 3925 
Q 2125 4025 2050 4087 
Q 1975 4150 1775 4150 
Q 1350 4150 1050 3762 
Q 750 3375 750 2075 
Q 900 2400 1162 2562 
Q 1425 2725 1725 2725 
z
" transform="scale(0.015625)"/>
       </defs>
       <use xlink:href="#FangSong-36"/>
       <use xlink:href="#FangSong-30" x="50"/>
      </g>
     </g>
    </g>
    <g id="xtick_5">
     <g id="line2d_5">
      <g>
       <use xlink:href="#m38dfd04666" x="275.168879" y="307.584" style="stroke: #000000; stroke-width: 0.8"/>
      </g>
     </g>
     <g id="text_5">
      <!-- 80 -->
      <g transform="translate(270.168879 321.576187) scale(0.1 -0.1)">
       <defs>
        <path id="FangSong-38" d="M 600 1025 
Q 600 625 862 375 
Q 1125 125 1525 125 
Q 2000 125 2212 375 
Q 2425 625 2425 1000 
Q 2425 1325 2125 1625 
Q 1825 1925 1225 2175 
Q 925 1975 762 1675 
Q 600 1375 600 1025 
z
M 2800 1075 
Q 2800 600 2450 275 
Q 2100 -50 1525 -50 
Q 1000 -50 625 275 
Q 250 600 250 1025 
Q 250 1450 462 1750 
Q 675 2050 1075 2275 
Q 725 2450 537 2712 
Q 350 2975 350 3300 
Q 350 3725 675 4025 
Q 1000 4325 1575 4325 
Q 2100 4325 2425 4025 
Q 2750 3725 2750 3300 
Q 2750 3000 2562 2737 
Q 2375 2475 1975 2275 
Q 2400 2025 2600 1725 
Q 2800 1425 2800 1075 
z
M 2400 3275 
Q 2400 3625 2200 3887 
Q 2000 4150 1575 4150 
Q 1100 4150 900 3900 
Q 700 3650 700 3375 
Q 700 3100 987 2837 
Q 1275 2575 1800 2375 
Q 2100 2525 2250 2750 
Q 2400 2975 2400 3275 
z
" transform="scale(0.015625)"/>
       </defs>
       <use xlink:href="#FangSong-38"/>
       <use xlink:href="#FangSong-30" x="50"/>
      </g>
     </g>
    </g>
    <g id="xtick_6">
     <g id="line2d_6">
      <g>
       <use xlink:href="#m38dfd04666" x="325.502918" y="307.584" style="stroke: #000000; stroke-width: 0.8"/>
      </g>
     </g>
     <g id="text_6">
      <!-- 100 -->
      <g transform="translate(318.002918 321.576187) scale(0.1 -0.1)">
       <defs>
        <path id="FangSong-31" d="M 1800 4350 
L 1800 550 
Q 1800 350 1925 250 
Q 2050 150 2275 150 
L 2525 150 
L 2525 0 
L 700 0 
L 700 150 
L 925 150 
Q 1175 150 1287 250 
Q 1400 350 1400 550 
L 1400 3575 
Q 1400 3675 1337 3737 
Q 1275 3800 1150 3800 
L 700 3800 
L 700 3950 
L 925 3950 
Q 1225 3950 1412 4050 
Q 1600 4150 1700 4350 
L 1800 4350 
z
" transform="scale(0.015625)"/>
       </defs>
       <use xlink:href="#FangSong-31"/>
       <use xlink:href="#FangSong-30" x="50"/>
       <use xlink:href="#FangSong-30" x="100"/>
      </g>
     </g>
    </g>
    <g id="xtick_7">
     <g id="line2d_7">
      <g>
       <use xlink:href="#m38dfd04666" x="375.836956" y="307.584" style="stroke: #000000; stroke-width: 0.8"/>
      </g>
     </g>
     <g id="text_7">
      <!-- 120 -->
      <g transform="translate(368.336956 321.576187) scale(0.1 -0.1)">
       <use xlink:href="#FangSong-31"/>
       <use xlink:href="#FangSong-32" x="50"/>
       <use xlink:href="#FangSong-30" x="100"/>
      </g>
     </g>
    </g>
    <g id="text_8">
     <!-- 自2022年09月27日过去的天数 -->
     <g transform="translate(171.16 334.912125) scale(0.1 -0.1)">
      <defs>
       <path id="FangSong-81ea" d="M 2000 -50 
Q 2025 -625 1925 -575 
L 1650 -250 
Q 1775 -50 1775 300 
L 1775 3325 
Q 1775 3775 1625 4150 
L 1750 4200 
L 2000 3650 
L 2625 3725 
Q 2800 4150 2950 4600 
Q 3100 5050 2975 5200 
L 3050 5225 
L 3375 4825 
Q 3300 4825 3175 4562 
Q 3050 4300 2800 3750 
L 4725 3925 
L 4875 4200 
L 5175 3950 
L 4975 3725 
Q 4800 325 4725 -87 
Q 4650 -500 4587 -437 
Q 4525 -375 4500 75 
Q 3800 75 2000 -50 
z
M 4325 1400 
Q 3725 1375 2000 1200 
L 2000 175 
Q 3950 300 4225 375 
L 4500 125 
Q 4575 700 4750 3700 
L 2000 3425 
L 2000 2525 
Q 3650 2725 4025 2800 
L 4300 2525 
Q 3875 2500 2000 2300 
L 2000 1425 
Q 3650 1600 4050 1675 
L 4325 1400 
z
" transform="scale(0.015625)"/>
       <path id="FangSong-5e74" d="M 3350 3875 
Q 2475 3775 2475 3750 
L 2250 3950 
Q 1775 3250 1075 2600 
L 1000 2675 
Q 1725 3450 2125 4212 
Q 2525 4975 2450 5150 
L 2525 5175 
L 2800 4775 
Q 2750 4825 2650 4650 
Q 2550 4475 2275 4000 
Q 3075 4075 3912 4162 
Q 4750 4250 4850 4300 
L 5125 4025 
Q 4825 4025 3575 3900 
L 3550 2950 
Q 4650 3050 4725 3125 
L 5125 2850 
Q 4650 2850 3550 2725 
L 3550 1775 
Q 5400 1925 5650 2000 
L 5975 1725 
Q 5625 1725 3550 1550 
L 3525 -350 
Q 3525 -700 3425 -625 
L 3175 -250 
Q 3300 -100 3300 150 
L 3325 1525 
Q 1050 1350 850 1275 
L 550 1550 
Q 1050 1550 2000 1625 
L 2000 2475 
Q 1975 2825 1900 3075 
L 1975 3125 
L 2225 2825 
L 3325 2925 
L 3350 3875 
z
M 3325 1750 
L 3325 2700 
L 2225 2600 
L 2225 1650 
L 3325 1750 
z
" transform="scale(0.015625)"/>
       <path id="FangSong-39" d="M 675 2950 
Q 675 2400 887 2112 
Q 1100 1825 1425 1825 
Q 1800 1825 2075 2175 
Q 2350 2525 2350 2825 
Q 2350 3425 2150 3787 
Q 1950 4150 1500 4150 
Q 1075 4150 875 3812 
Q 675 3475 675 2950 
z
M 1350 1600 
Q 850 1600 550 1912 
Q 250 2225 250 2925 
Q 250 3525 575 3925 
Q 900 4325 1500 4325 
Q 2125 4325 2475 3825 
Q 2825 3325 2825 2375 
Q 2825 1325 2412 637 
Q 2000 -50 1275 -50 
Q 950 -50 712 100 
Q 475 250 475 500 
Q 475 600 537 700 
Q 600 800 750 800 
Q 900 800 950 687 
Q 1000 575 1000 425 
Q 1000 325 1025 262 
Q 1050 200 1075 175 
Q 1100 150 1162 137 
Q 1225 125 1300 125 
Q 1750 125 2025 625 
Q 2300 1125 2350 2300 
Q 2225 2000 1975 1800 
Q 1725 1600 1350 1600 
z
" transform="scale(0.015625)"/>
       <path id="FangSong-6708" d="M 2400 3325 
Q 3625 3475 3825 3575 
L 4075 3300 
Q 3800 3300 2400 3075 
Q 2375 2600 2300 2175 
Q 3700 2325 3875 2400 
L 4125 2150 
Q 3625 2125 2275 1900 
Q 1925 425 800 -575 
L 725 -475 
Q 1475 350 1775 1112 
Q 2075 1875 2125 2650 
Q 2175 3425 2175 4025 
Q 2175 4625 2125 5075 
L 2200 5100 
L 2400 4575 
L 4250 4825 
L 4450 5100 
L 4750 4825 
L 4550 4625 
L 4500 200 
Q 4500 -400 4325 -675 
Q 4075 -350 3325 300 
L 3400 350 
L 4225 -150 
Q 4300 175 4275 525 
L 4325 4575 
L 2425 4325 
L 2400 3325 
z
" transform="scale(0.015625)"/>
       <path id="FangSong-37" d="M 2800 4100 
Q 2275 3250 1962 2437 
Q 1650 1625 1650 1025 
Q 1650 925 1662 737 
Q 1675 550 1675 300 
Q 1675 100 1612 25 
Q 1550 -50 1400 -50 
Q 1275 -50 1187 37 
Q 1100 125 1100 350 
Q 1100 825 1312 1525 
Q 1525 2225 2450 3900 
L 1200 3900 
Q 925 3900 762 3725 
Q 600 3550 525 3200 
L 375 3225 
L 550 4275 
L 2800 4275 
L 2800 4100 
z
" transform="scale(0.015625)"/>
       <path id="FangSong-65e5" d="M 4825 4900 
L 5150 4625 
L 4950 4425 
Q 4800 525 4712 37 
Q 4625 -450 4562 -325 
Q 4500 -200 4450 300 
L 2125 150 
Q 2150 -525 2025 -325 
L 1775 100 
Q 1925 250 1900 675 
L 1875 4075 
Q 1875 4425 1775 4875 
L 1850 4900 
L 2075 4400 
L 4650 4625 
L 4825 4900 
z
M 2100 2550 
Q 3950 2700 4075 2800 
L 4350 2525 
Q 3875 2500 2100 2300 
L 2125 375 
Q 3975 475 4200 550 
L 4475 300 
Q 4575 500 4725 4400 
L 2075 4150 
L 2100 2550 
z
" transform="scale(0.015625)"/>
       <path id="FangSong-8fc7" d="M 2050 3300 
L 2375 3025 
L 2175 2850 
L 1800 2000 
Q 2125 1625 2112 1387 
Q 2100 1150 1825 700 
Q 3200 400 3912 200 
Q 4625 0 4862 25 
Q 5100 50 5875 150 
L 5875 25 
Q 5100 -200 4800 -350 
Q 4125 -150 3525 50 
Q 2925 250 2400 400 
Q 1875 550 1437 587 
Q 1000 625 800 550 
L 500 775 
Q 1125 875 1675 725 
Q 1850 1200 1862 1412 
Q 1875 1625 1625 1975 
L 1900 2825 
Q 925 2650 850 2625 
L 550 2850 
Q 800 2850 1900 3050 
L 2050 3300 
z
M 3475 1450 
L 4175 1025 
Q 4200 1075 4250 1550 
L 4250 3375 
Q 2875 3200 2825 3150 
L 2500 3425 
Q 2875 3425 4250 3600 
L 4250 4550 
Q 4275 4975 4100 5175 
L 4175 5225 
L 4600 4850 
Q 4450 4775 4475 4350 
L 4475 3625 
Q 5250 3725 5350 3775 
L 5675 3525 
Q 5250 3500 4475 3400 
L 4475 1375 
Q 4450 800 4275 475 
Q 4100 825 3400 1375 
L 3475 1450 
z
M 2000 3675 
Q 1850 3975 1250 4725 
L 1350 4800 
Q 1825 4475 2100 4250 
Q 2100 3875 2000 3675 
z
M 3525 1975 
Q 3375 2250 2850 2800 
L 2925 2875 
Q 3425 2575 3625 2450 
Q 3600 2200 3525 1975 
z
" transform="scale(0.015625)"/>
       <path id="FangSong-53bb" d="M 3050 5275 
L 3450 4925 
Q 3350 4850 3375 4425 
L 3350 3350 
Q 4775 3475 4850 3550 
L 5200 3250 
Q 4875 3275 3350 3100 
L 3325 1950 
Q 5500 2150 5575 2225 
L 6000 1925 
Q 5450 1925 2975 1700 
L 3225 1400 
Q 3050 1350 2675 875 
Q 2300 400 1950 -25 
L 4350 225 
L 3725 1175 
L 3775 1250 
Q 4450 525 4900 75 
Q 4850 -150 4725 -450 
Q 4600 -150 4450 75 
Q 1875 -300 1650 -375 
L 1400 0 
L 1725 25 
Q 2075 450 2462 987 
Q 2850 1525 2925 1700 
Q 1000 1550 950 1450 
L 625 1775 
Q 1150 1750 3100 1925 
L 3125 3075 
Q 1975 2975 1800 2925 
L 1450 3250 
Q 1775 3200 3125 3325 
L 3150 4400 
Q 3175 4975 2975 5200 
L 3050 5275 
z
" transform="scale(0.015625)"/>
       <path id="FangSong-7684" d="M 1175 400 
Q 1200 -350 1100 -275 
L 825 200 
Q 950 300 950 825 
L 925 3075 
Q 925 3450 800 3750 
L 900 3800 
L 1150 3400 
L 1400 3425 
Q 1600 4025 1700 4450 
Q 1800 4875 1675 5075 
L 1750 5125 
L 2150 4675 
Q 2050 4700 1912 4362 
Q 1775 4025 1550 3450 
L 2500 3575 
L 2625 3875 
L 2975 3625 
L 2775 3325 
Q 2750 2250 2725 1475 
Q 2700 700 2650 325 
Q 2600 -50 2550 -37 
Q 2500 -25 2350 500 
L 1175 400 
z
M 1175 650 
Q 1950 750 2100 825 
L 2400 525 
Q 2475 800 2487 1537 
Q 2500 2275 2525 3325 
L 1150 3150 
L 1150 2100 
Q 1925 2175 2175 2250 
L 2375 1975 
Q 2025 1950 1175 1825 
L 1175 650 
z
M 5275 3625 
L 5450 3925 
L 5775 3650 
L 5575 3450 
Q 5450 2125 5287 1075 
Q 5125 25 4850 -550 
Q 4525 -175 3850 400 
L 3900 475 
L 4775 -50 
Q 4900 225 5062 1225 
Q 5225 2225 5300 3400 
L 3575 3200 
Q 3300 2575 2875 1925 
L 2775 2000 
Q 3225 2875 3462 3525 
Q 3700 4175 3800 4612 
Q 3900 5050 3800 5150 
L 3875 5200 
L 4250 4775 
Q 4150 4800 4037 4462 
Q 3925 4125 3650 3425 
L 5275 3625 
z
M 4525 1775 
Q 4475 1575 4375 1325 
Q 4025 1925 3550 2550 
L 3625 2625 
Q 4100 2200 4525 1775 
z
" transform="scale(0.015625)"/>
       <path id="FangSong-5929" d="M 4675 -350 
Q 4700 -250 4275 562 
Q 3850 1375 3125 2625 
Q 2575 450 525 -600 
L 450 -500 
Q 2375 600 2900 2675 
Q 1350 2525 1175 2475 
L 825 2775 
Q 1250 2750 2950 2900 
Q 3075 3800 3100 4375 
Q 1950 4250 1775 4200 
L 1450 4475 
Q 1950 4475 3187 4625 
Q 4425 4775 4675 4850 
L 5025 4575 
Q 4600 4575 3175 4400 
L 3425 4125 
Q 3350 4150 3300 3850 
Q 3250 3550 3175 2925 
Q 5275 3125 5375 3200 
L 5725 2900 
Q 5475 2925 3275 2700 
Q 3925 1575 4275 962 
Q 4625 350 4837 100 
Q 5050 -150 5925 -125 
L 5925 -250 
L 4675 -350 
z
" transform="scale(0.015625)"/>
       <path id="FangSong-6570" d="M 4950 2750 
Q 4875 2675 4737 2262 
Q 4600 1850 4375 1300 
Q 4875 300 5087 37 
Q 5300 -225 6000 -225 
L 6000 -350 
L 4925 -425 
Q 4950 -325 4787 37 
Q 4625 400 4250 1100 
Q 3600 50 2575 -675 
L 2500 -575 
Q 3400 100 4100 1300 
Q 3700 2150 3550 2350 
Q 3400 2050 3250 1825 
L 3150 1875 
Q 3400 2425 3575 2937 
Q 3750 3450 3950 4225 
Q 4150 5000 4025 5100 
L 4100 5150 
L 4425 4800 
Q 4350 4750 4287 4500 
Q 4225 4250 3900 3200 
Q 5325 3375 5475 3475 
L 5775 3200 
Q 5425 3175 4700 3075 
L 4950 2750 
z
M 2975 450 
Q 3000 225 3000 25 
Q 2700 200 2275 400 
Q 1650 -250 550 -625 
L 500 -525 
Q 1475 -75 2025 475 
Q 1675 575 1275 700 
L 1600 1375 
Q 1000 1300 825 1250 
L 525 1525 
Q 825 1525 1700 1625 
Q 1800 1875 1825 2037 
Q 1850 2200 1825 2350 
L 1875 2375 
L 2150 2000 
Q 2075 1975 1950 1650 
L 2725 1725 
Q 2775 1850 2750 2075 
L 2825 2100 
L 3125 1700 
Q 3050 1700 2900 1387 
Q 2750 1075 2450 575 
Q 2650 525 2975 450 
z
M 2350 3600 
L 2650 3625 
Q 2900 4150 2987 4437 
Q 3075 4725 3050 4950 
L 3125 5000 
L 3400 4575 
Q 3325 4550 3212 4337 
Q 3100 4125 2800 3625 
Q 3275 3725 3300 3750 
L 3525 3475 
Q 3250 3475 2350 3375 
L 2350 3225 
Q 2800 3025 3225 2850 
Q 3225 2650 3200 2400 
Q 2850 2750 2350 3075 
L 2350 2375 
Q 2350 2050 2250 2200 
L 2025 2500 
Q 2150 2625 2125 2850 
L 2125 3200 
Q 1350 2300 475 1775 
L 400 1875 
Q 1200 2425 1900 3325 
Q 1050 3225 1000 3175 
L 675 3475 
Q 1050 3450 2125 3575 
L 2125 4475 
Q 2125 4975 2000 5175 
L 2075 5225 
L 2450 4925 
Q 2350 4850 2350 4400 
L 2350 3600 
z
M 3800 2450 
Q 3825 2300 3950 2025 
L 4200 1550 
Q 4325 1800 4487 2375 
Q 4650 2950 4600 3050 
L 3800 2950 
Q 3700 2700 3600 2475 
L 3800 2450 
z
M 2175 650 
Q 2500 1075 2675 1525 
L 1875 1400 
L 1575 800 
L 2175 650 
z
M 1625 3650 
Q 1475 4000 1100 4525 
L 1175 4600 
Q 1475 4350 1825 4025 
Q 1725 3825 1625 3650 
z
" transform="scale(0.015625)"/>
      </defs>
      <use xlink:href="#FangSong-81ea"/>
      <use xlink:href="#FangSong-32" x="100"/>
      <use xlink:href="#FangSong-30" x="150"/>
      <use xlink:href="#FangSong-32" x="200"/>
      <use xlink:href="#FangSong-32" x="250"/>
      <use xlink:href="#FangSong-5e74" x="300"/>
      <use xlink:href="#FangSong-30" x="400"/>
      <use xlink:href="#FangSong-39" x="450"/>
      <use xlink:href="#FangSong-6708" x="500"/>
      <use xlink:href="#FangSong-32" x="600"/>
      <use xlink:href="#FangSong-37" x="650"/>
      <use xlink:href="#FangSong-65e5" x="700"/>
      <use xlink:href="#FangSong-8fc7" x="800"/>
      <use xlink:href="#FangSong-53bb" x="900"/>
      <use xlink:href="#FangSong-7684" x="1000"/>
      <use xlink:href="#FangSong-5929" x="1100"/>
      <use xlink:href="#FangSong-6570" x="1200"/>
     </g>
    </g>
   </g>
   <g id="matplotlib.axis_2">
    <g id="ytick_1">
     <g id="line2d_8">
      <defs>
       <path id="m73e2938380" d="M 0 0 
L -3.5 0 
" style="stroke: #000000; stroke-width: 0.8"/>
      </defs>
      <g>
       <use xlink:href="#m73e2938380" x="57.6" y="295.488" style="stroke: #000000; stroke-width: 0.8"/>
      </g>
     </g>
     <g id="text_9">
      <!-- 0 -->
      <g transform="translate(45.6 298.984094) scale(0.1 -0.1)">
       <use xlink:href="#FangSong-30"/>
      </g>
     </g>
    </g>
    <g id="ytick_2">
     <g id="line2d_9">
      <g>
       <use xlink:href="#m73e2938380" x="57.6" y="259.701018" style="stroke: #000000; stroke-width: 0.8"/>
      </g>
     </g>
     <g id="text_10">
      <!-- 50 -->
      <g transform="translate(40.6 263.197112) scale(0.1 -0.1)">
       <defs>
        <path id="FangSong-35" d="M 1700 2750 
Q 2175 2750 2475 2387 
Q 2775 2025 2775 1425 
Q 2775 750 2462 350 
Q 2150 -50 1500 -50 
Q 1050 -50 700 212 
Q 350 475 350 850 
Q 350 1000 437 1112 
Q 525 1225 675 1225 
Q 825 1225 875 1125 
Q 925 1025 925 950 
Q 925 800 850 712 
Q 775 625 775 525 
Q 775 325 1012 225 
Q 1250 125 1525 125 
Q 1925 125 2137 450 
Q 2350 775 2350 1375 
Q 2350 1875 2162 2187 
Q 1975 2500 1600 2500 
Q 1325 2500 1125 2400 
Q 925 2300 750 1975 
L 525 2000 
L 650 4275 
L 2700 4275 
L 2625 3900 
L 825 3900 
L 725 2250 
Q 975 2600 1212 2675 
Q 1450 2750 1700 2750 
z
" transform="scale(0.015625)"/>
       </defs>
       <use xlink:href="#FangSong-35"/>
       <use xlink:href="#FangSong-30" x="50"/>
      </g>
     </g>
    </g>
    <g id="ytick_3">
     <g id="line2d_10">
      <g>
       <use xlink:href="#m73e2938380" x="57.6" y="223.914036" style="stroke: #000000; stroke-width: 0.8"/>
      </g>
     </g>
     <g id="text_11">
      <!-- 100 -->
      <g transform="translate(35.6 227.410129) scale(0.1 -0.1)">
       <use xlink:href="#FangSong-31"/>
       <use xlink:href="#FangSong-30" x="50"/>
       <use xlink:href="#FangSong-30" x="100"/>
      </g>
     </g>
    </g>
    <g id="ytick_4">
     <g id="line2d_11">
      <g>
       <use xlink:href="#m73e2938380" x="57.6" y="188.127053" style="stroke: #000000; stroke-width: 0.8"/>
      </g>
     </g>
     <g id="text_12">
      <!-- 150 -->
      <g transform="translate(35.6 191.623147) scale(0.1 -0.1)">
       <use xlink:href="#FangSong-31"/>
       <use xlink:href="#FangSong-35" x="50"/>
       <use xlink:href="#FangSong-30" x="100"/>
      </g>
     </g>
    </g>
    <g id="ytick_5">
     <g id="line2d_12">
      <g>
       <use xlink:href="#m73e2938380" x="57.6" y="152.340071" style="stroke: #000000; stroke-width: 0.8"/>
      </g>
     </g>
     <g id="text_13">
      <!-- 200 -->
      <g transform="translate(35.6 155.836165) scale(0.1 -0.1)">
       <use xlink:href="#FangSong-32"/>
       <use xlink:href="#FangSong-30" x="50"/>
       <use xlink:href="#FangSong-30" x="100"/>
      </g>
     </g>
    </g>
    <g id="ytick_6">
     <g id="line2d_13">
      <g>
       <use xlink:href="#m73e2938380" x="57.6" y="116.553089" style="stroke: #000000; stroke-width: 0.8"/>
      </g>
     </g>
     <g id="text_14">
      <!-- 250 -->
      <g transform="translate(35.6 120.049183) scale(0.1 -0.1)">
       <use xlink:href="#FangSong-32"/>
       <use xlink:href="#FangSong-35" x="50"/>
       <use xlink:href="#FangSong-30" x="100"/>
      </g>
     </g>
    </g>
    <g id="ytick_7">
     <g id="line2d_14">
      <g>
       <use xlink:href="#m73e2938380" x="57.6" y="80.766107" style="stroke: #000000; stroke-width: 0.8"/>
      </g>
     </g>
     <g id="text_15">
      <!-- 300 -->
      <g transform="translate(35.6 84.2622) scale(0.1 -0.1)">
       <defs>
        <path id="FangSong-33" d="M 2775 1150 
Q 2775 675 2425 312 
Q 2075 -50 1450 -50 
Q 1000 -50 675 200 
Q 350 450 350 775 
Q 350 925 450 1037 
Q 550 1150 650 1150 
Q 800 1150 862 1037 
Q 925 925 925 850 
Q 925 725 875 637 
Q 825 550 825 475 
Q 825 325 1012 225 
Q 1200 125 1425 125 
Q 1875 125 2100 387 
Q 2325 650 2325 1200 
Q 2325 1650 2087 1925 
Q 1850 2200 1200 2200 
L 1200 2375 
Q 1700 2375 1937 2612 
Q 2175 2850 2175 3275 
Q 2175 3625 1987 3887 
Q 1800 4150 1400 4150 
Q 1225 4150 1025 4062 
Q 825 3975 825 3775 
Q 825 3575 875 3525 
Q 925 3475 925 3400 
Q 925 3275 875 3200 
Q 825 3125 700 3125 
Q 600 3125 512 3200 
Q 425 3275 425 3475 
Q 425 3850 750 4087 
Q 1075 4325 1500 4325 
Q 2000 4325 2300 4012 
Q 2600 3700 2600 3350 
Q 2600 2975 2412 2712 
Q 2225 2450 1825 2325 
Q 2375 2125 2575 1800 
Q 2775 1475 2775 1150 
z
" transform="scale(0.015625)"/>
       </defs>
       <use xlink:href="#FangSong-33"/>
       <use xlink:href="#FangSong-30" x="50"/>
       <use xlink:href="#FangSong-30" x="100"/>
      </g>
     </g>
    </g>
    <g id="ytick_8">
     <g id="line2d_15">
      <g>
       <use xlink:href="#m73e2938380" x="57.6" y="44.979124" style="stroke: #000000; stroke-width: 0.8"/>
      </g>
     </g>
     <g id="text_16">
      <!-- 350 -->
      <g transform="translate(35.6 48.475218) scale(0.1 -0.1)">
       <use xlink:href="#FangSong-33"/>
       <use xlink:href="#FangSong-35" x="50"/>
       <use xlink:href="#FangSong-30" x="100"/>
      </g>
     </g>
    </g>
    <g id="text_17">
     <!-- 得分 -->
     <g transform="translate(30.154688 184.528) rotate(-90) scale(0.1 -0.1)">
      <defs>
       <path id="FangSong-5f97" d="M 4750 5075 
L 5025 4850 
L 4875 4675 
L 4750 3450 
L 4925 3225 
L 3075 3075 
Q 3075 2825 3000 2850 
L 2775 3175 
Q 2875 3225 2850 3500 
L 2825 4475 
Q 2825 4725 2725 5050 
L 2825 5100 
L 3025 4725 
L 4600 4875 
L 4750 5075 
z
M 4275 -150 
Q 4350 50 4325 225 
L 4325 1575 
L 3000 1450 
Q 3225 1175 3450 875 
L 3250 525 
Q 3100 975 2875 1450 
Q 2450 1425 2225 1350 
L 1925 1600 
Q 2425 1600 4325 1800 
L 4325 2150 
Q 4325 2325 4275 2450 
Q 2875 2300 2700 2250 
L 2425 2500 
Q 2875 2500 3937 2637 
Q 5000 2775 5125 2825 
L 5400 2550 
Q 5100 2550 4425 2450 
L 4625 2300 
Q 4550 2225 4550 2000 
L 4550 1825 
Q 5550 1925 5725 2000 
L 6000 1725 
Q 5675 1725 4550 1600 
L 4550 125 
Q 4550 -400 4350 -675 
Q 4025 -225 3450 275 
L 3525 350 
L 4275 -150 
z
M 3050 4025 
Q 4150 4100 4325 4175 
L 4500 3925 
Q 4250 3925 3075 3800 
L 3075 3300 
L 4525 3425 
L 4650 4650 
L 3050 4500 
L 3050 4025 
z
M 1550 2400 
Q 1100 1925 525 1425 
L 450 1500 
Q 1025 2075 1600 2812 
Q 2175 3550 2100 3725 
L 2175 3775 
L 2375 3300 
Q 2275 3275 2175 3175 
Q 2075 3075 1775 2675 
L 1750 -300 
Q 1750 -700 1675 -625 
L 1425 -150 
Q 1550 -75 1525 300 
L 1550 2400 
z
M 600 3300 
Q 1325 3975 1662 4387 
Q 2000 4800 1950 4950 
L 2025 4975 
L 2200 4550 
Q 2075 4500 1712 4137 
Q 1350 3775 650 3200 
L 600 3300 
z
" transform="scale(0.015625)"/>
       <path id="FangSong-5206" d="M 3475 -175 
Q 3675 125 4050 2375 
L 2900 2275 
Q 2625 1150 2112 500 
Q 1600 -150 600 -600 
L 550 -500 
Q 1400 -75 1912 600 
Q 2425 1275 2625 2250 
Q 2025 2200 1900 2125 
L 1650 2425 
Q 2000 2400 4050 2625 
L 4225 2825 
L 4500 2500 
L 4300 2400 
Q 4125 1275 3950 500 
Q 3775 -275 3525 -650 
Q 3200 -225 2600 275 
L 2650 350 
L 3475 -175 
z
M 4925 2175 
Q 4925 2300 4525 2962 
Q 4125 3625 3700 4362 
Q 3275 5100 3100 5125 
L 3125 5225 
L 3450 5200 
Q 3450 5150 3475 5062 
Q 3500 4975 3850 4400 
Q 4200 3825 4562 3275 
Q 4925 2725 5150 2575 
Q 5375 2425 5975 2400 
L 6000 2275 
L 4925 2175 
z
M 500 1725 
Q 1000 2150 1425 2725 
Q 1850 3300 2137 3887 
Q 2425 4475 2325 4675 
L 2425 4700 
L 2675 4200 
Q 2625 4250 2300 3675 
Q 1950 3050 1587 2600 
Q 1225 2150 575 1625 
L 500 1725 
z
" transform="scale(0.015625)"/>
      </defs>
      <use xlink:href="#FangSong-5f97"/>
      <use xlink:href="#FangSong-5206" x="100"/>
     </g>
    </g>
   </g>
   <g id="line2d_16">
    <path d="M 73.832727 295.488 
L 93.966342 295.488 
L 96.483044 263.279716 
L 139.266977 263.279716 
L 141.783679 211.030722 
L 146.817082 211.030722 
L 149.333784 170.949302 
L 192.117717 170.949302 
L 194.634419 142.319716 
L 202.184524 142.319716 
L 204.701226 135.878059 
L 207.217928 92.93368 
L 209.73463 75.040189 
L 217.284736 75.040189 
L 219.801438 53.568 
L 398.487273 53.568 
L 398.487273 53.568 
" clip-path="url(#p199df151bf)" style="fill: none; stroke: #1f77b4; stroke-width: 1.5; stroke-linecap: square"/>
   </g>
   <g id="patch_3">
    <path d="M 57.6 307.584 
L 57.6 41.472 
" style="fill: none; stroke: #000000; stroke-width: 0.8; stroke-linejoin: miter; stroke-linecap: square"/>
   </g>
   <g id="patch_4">
    <path d="M 414.72 307.584 
L 414.72 41.472 
" style="fill: none; stroke: #000000; stroke-width: 0.8; stroke-linejoin: miter; stroke-linecap: square"/>
   </g>
   <g id="patch_5">
    <path d="M 57.6 307.584 
L 414.72 307.584 
" style="fill: none; stroke: #000000; stroke-width: 0.8; stroke-linejoin: miter; stroke-linecap: square"/>
   </g>
   <g id="patch_6">
    <path d="M 57.6 41.472 
L 414.72 41.472 
" style="fill: none; stroke: #000000; stroke-width: 0.8; stroke-linejoin: miter; stroke-linecap: square"/>
   </g>
   <g id="text_18">
    <!-- 2021204082的分数增长曲线 -->
    <g transform="translate(164.16 35.472) scale(0.12 -0.12)">
     <defs>
      <path id="FangSong-589e" d="M 4100 3925 
Q 4375 4375 4512 4725 
Q 4650 5075 4575 5250 
L 4650 5275 
L 5000 4875 
Q 4950 4925 4750 4662 
Q 4550 4400 4300 3925 
L 5300 4050 
L 5475 4300 
L 5775 4025 
L 5625 3850 
L 5400 2475 
L 5675 2275 
L 2900 1975 
Q 2900 1850 2825 1825 
L 2550 2125 
Q 2650 2250 2625 2475 
L 2575 3550 
Q 2525 3875 2450 4100 
L 2525 4150 
L 2775 3775 
L 4100 3925 
z
M 2550 1525 
Q 925 725 825 625 
L 425 825 
Q 600 850 1500 1225 
L 1525 2775 
Q 975 2675 925 2625 
L 575 2900 
Q 1050 2925 1525 3025 
L 1550 4275 
Q 1600 4850 1450 5125 
L 1475 5175 
L 1900 4775 
Q 1775 4825 1775 4275 
L 1750 3075 
Q 2275 3175 2275 3225 
L 2525 2925 
Q 2225 2925 1750 2825 
L 1725 1300 
L 2500 1650 
L 2550 1525 
z
M 5350 3825 
L 4150 3675 
L 4150 2350 
L 5175 2475 
L 5350 3825 
z
M 3925 2325 
L 3925 3650 
L 2800 3525 
L 2850 2225 
L 3925 2325 
z
M 4225 2600 
Q 4475 2975 4625 3237 
Q 4775 3500 4700 3625 
L 4775 3650 
L 5050 3250 
Q 4975 3275 4800 3087 
Q 4625 2900 4325 2500 
L 4225 2600 
z
M 2975 5000 
Q 3425 4600 3700 4425 
Q 3675 4175 3575 3975 
Q 3275 4450 2900 4925 
L 2975 5000 
z
M 3475 2500 
Q 3275 2975 3050 3325 
L 3125 3375 
Q 3425 3075 3650 2900 
Q 3600 2775 3475 2500 
z
M 4725 -125 
Q 4775 225 4825 1450 
L 3200 1275 
L 3225 725 
Q 4425 850 4475 925 
L 4725 650 
Q 4400 650 3225 500 
L 3250 -100 
Q 4300 25 4475 100 
L 4725 -125 
z
M 3250 -325 
Q 3275 -675 3175 -650 
L 2925 -300 
Q 3025 -150 3000 75 
L 2975 1100 
Q 2950 1550 2900 1725 
L 2975 1800 
L 3175 1525 
L 4775 1700 
L 4975 1900 
L 5250 1625 
L 5075 1425 
Q 5050 825 5025 325 
Q 5000 -175 4962 -412 
Q 4925 -650 4875 -650 
Q 4825 -650 4700 -200 
L 3250 -325 
z
" transform="scale(0.015625)"/>
      <path id="FangSong-957f" d="M 4575 -100 
Q 4550 100 2800 2400 
L 2325 2350 
L 2300 -100 
L 3425 675 
L 3475 600 
Q 2450 -275 2200 -600 
L 1950 -350 
L 2075 -175 
L 2100 2325 
Q 825 2200 725 2150 
L 425 2450 
Q 700 2400 2100 2575 
L 2100 4375 
Q 2125 4950 1900 5150 
L 1975 5200 
L 2450 4850 
Q 2300 4700 2325 4275 
L 2325 3075 
Q 3300 3825 3762 4287 
Q 4225 4750 4150 4925 
L 4250 4950 
L 4375 4400 
Q 4325 4475 3850 4062 
Q 3375 3650 2325 2900 
L 2325 2600 
Q 5075 2875 5250 2950 
L 5625 2700 
Q 5125 2675 2975 2425 
Q 3800 1375 4162 937 
Q 4525 500 4725 362 
Q 4925 225 5800 125 
L 5800 0 
Q 5075 0 4575 -100 
z
" transform="scale(0.015625)"/>
      <path id="FangSong-66f2" d="M 5250 3550 
L 5550 3275 
L 5350 3100 
Q 5050 450 4950 25 
Q 4850 -400 4812 -312 
Q 4775 -225 4725 150 
L 1625 -75 
Q 1650 -425 1575 -375 
L 1275 0 
Q 1400 200 1375 400 
L 1250 2575 
Q 1250 3025 1125 3400 
L 1225 3425 
L 1450 3000 
L 2575 3100 
L 2575 4250 
Q 2600 4700 2425 4925 
L 2500 4975 
L 2900 4575 
Q 2775 4525 2800 4225 
L 2800 3125 
L 3675 3200 
L 3675 4525 
Q 3675 5050 3500 5175 
L 3550 5250 
L 4050 4875 
Q 3875 4825 3900 4450 
L 3900 3225 
L 5075 3350 
L 5250 3550 
z
M 3900 1925 
Q 4500 2000 4475 2050 
L 4700 1750 
Q 4400 1750 3900 1700 
L 3900 325 
Q 4550 375 4550 425 
L 4725 175 
Q 4850 475 5075 3075 
L 3900 3000 
L 3900 1925 
z
M 2575 1550 
Q 2075 1500 2000 1450 
L 1700 1725 
Q 1975 1725 2575 1775 
L 2575 2875 
L 1500 2775 
L 1625 175 
L 2575 225 
L 2575 1550 
z
M 2800 250 
L 3675 300 
L 3675 1675 
L 2800 1575 
L 2800 250 
z
M 3675 1900 
L 3675 2975 
L 2800 2900 
L 2800 1800 
L 3675 1900 
z
" transform="scale(0.015625)"/>
      <path id="FangSong-7ebf" d="M 4100 1125 
Q 4450 1450 4637 1700 
Q 4825 1950 4800 2150 
L 4875 2175 
L 5050 1625 
Q 4950 1650 4775 1475 
Q 4600 1300 4200 875 
Q 4800 0 5425 -200 
L 5475 800 
L 5575 800 
Q 5650 -350 5725 -625 
Q 4700 -350 4025 725 
Q 3425 150 2325 -350 
L 2275 -250 
Q 3150 175 3925 950 
Q 3750 1350 3575 2050 
Q 2975 1875 2900 1825 
L 2550 1975 
Q 2875 2050 3550 2250 
Q 3500 2575 3425 3025 
Q 3075 2950 2950 2875 
L 2650 3025 
Q 2850 3075 3425 3225 
Q 3325 4025 3300 4462 
Q 3275 4900 3125 5125 
L 3200 5200 
L 3650 4825 
Q 3550 4650 3562 4325 
Q 3575 4000 3625 3325 
Q 4550 3600 4600 3675 
L 4950 3475 
Q 4600 3400 3650 3100 
Q 3700 2600 3775 2300 
Q 5000 2725 5050 2800 
L 5400 2600 
Q 5225 2575 3800 2125 
Q 3925 1500 4100 1125 
z
M 2525 1725 
Q 1375 1350 1175 1225 
L 950 1500 
L 1225 1575 
L 1950 2725 
Q 1175 2575 975 2450 
L 775 2750 
L 1050 2875 
Q 1550 3800 1737 4250 
Q 1925 4700 1850 4900 
L 1925 4950 
L 2225 4475 
Q 2125 4525 1812 3937 
Q 1500 3350 1225 2800 
L 2075 2925 
Q 2450 3500 2375 3750 
L 2450 3800 
L 2700 3325 
Q 2600 3325 2337 2925 
Q 2075 2525 1475 1625 
L 2500 1825 
L 2525 1725 
z
M 2825 825 
Q 1100 50 1000 -25 
L 625 200 
Q 1000 250 2775 950 
L 2825 825 
z
M 4700 3900 
Q 4450 4175 3925 4650 
L 3975 4750 
Q 4525 4475 4700 4400 
L 4700 3900 
z
" transform="scale(0.015625)"/>
     </defs>
     <use xlink:href="#FangSong-32"/>
     <use xlink:href="#FangSong-30" x="50"/>
     <use xlink:href="#FangSong-32" x="100"/>
     <use xlink:href="#FangSong-31" x="150"/>
     <use xlink:href="#FangSong-32" x="200"/>
     <use xlink:href="#FangSong-30" x="250"/>
     <use xlink:href="#FangSong-34" x="300"/>
     <use xlink:href="#FangSong-30" x="350"/>
     <use xlink:href="#FangSong-38" x="400"/>
     <use xlink:href="#FangSong-32" x="450"/>
     <use xlink:href="#FangSong-7684" x="500"/>
     <use xlink:href="#FangSong-5206" x="600"/>
     <use xlink:href="#FangSong-6570" x="700"/>
     <use xlink:href="#FangSong-589e" x="800"/>
     <use xlink:href="#FangSong-957f" x="900"/>
     <use xlink:href="#FangSong-66f2" x="1000"/>
     <use xlink:href="#FangSong-7ebf" x="1100"/>
    </g>
   </g>
  </g>
 </g>
 <defs>
  <clipPath id="p199df151bf">
   <rect x="57.6" y="41.472" width="357.12" height="266.112"/>
  </clipPath>
 </defs>
</svg>
